<?xml version="1.0" standalone="no"?>
<!DOCTYPE svg PUBLIC "-//W3C//DTD SVG 20010904//EN"
 "http://www.w3.org/TR/2001/REC-SVG-20010904/DTD/svg10.dtd">
<svg version="1.0" xmlns="http://www.w3.org/2000/svg"
 width="709.000000pt" height="709.000000pt" viewBox="0 0 709.000000 709.000000"
 preserveAspectRatio="xMidYMid meet">
<metadata>
Created by potrace 1.14, written by Peter Selinger 2001-2017
</metadata>
<g transform="translate(0.000000,709.000000) scale(0.100000,-0.100000)"
fill="#000000" stroke="none">
<path d="M3365 5245 c26 -9 105 -12 105 -4 0 5 -26 9 -57 8 -32 0 -53 -2 -48
-4z"/>
<path d="M3316 5220 c-13 -4 -16 -9 -8 -14 7 -4 19 -3 28 2 21 12 5 22 -20 12z"/>
<path d="M3383 5223 c-7 -2 -13 -10 -13 -16 0 -10 -96 -47 -135 -52 -28 -4
-71 -19 -83 -28 -9 -7 -16 -7 -24 1 -15 15 -84 16 -93 2 -3 -5 -18 -10 -33
-10 -15 -1 -38 -7 -52 -15 -29 -17 -9 -20 22 -4 17 9 19 8 16 -7 -1 -9 -20
-23 -40 -30 -35 -12 -38 -12 -38 7 0 13 -7 19 -21 19 -13 0 -18 -4 -13 -12 5
-7 2 -10 -7 -6 -8 2 -32 -1 -54 -8 l-40 -12 43 -1 c24 -1 42 -6 42 -12 0 -6
-8 -9 -18 -7 -10 3 -23 -1 -30 -9 -15 -16 -33 -17 -30 -2 4 16 -62 21 -80 7
-8 -7 -28 -13 -45 -14 -16 -1 -32 -6 -36 -11 -3 -6 -23 -13 -44 -17 -21 -4
-41 -14 -44 -22 -3 -8 -12 -13 -20 -10 -15 6 -119 -20 -138 -34 -5 -4 -27 -10
-47 -14 -21 -4 -38 -11 -38 -17 0 -5 -6 -9 -12 -8 -19 4 -214 -53 -298 -86
-19 -8 -55 -19 -80 -26 -43 -11 -44 -11 -21 -24 17 -9 20 -14 11 -20 -7 -4
-15 -3 -19 3 -6 11 -27 16 -51 12 -8 -1 -2 -8 15 -15 35 -16 24 -19 -22 -6
-37 11 -89 0 -85 -18 1 -6 -4 -11 -10 -11 -9 0 -8 -4 2 -11 13 -9 13 -10 0 -6
-8 2 -14 10 -12 16 3 14 -24 14 -51 -1 -12 -6 -44 -17 -72 -23 -27 -6 -51 -17
-51 -23 -3 -23 -4 -24 -17 -13 -10 8 -21 7 -40 -2 -15 -6 -27 -15 -27 -19 0
-3 -8 -4 -19 -1 -10 2 -76 -14 -147 -37 -71 -23 -135 -44 -143 -46 -11 -4 -10
-8 5 -19 18 -14 17 -14 -9 -5 -27 9 -60 2 -58 -13 3 -19 -1 -23 -20 -23 -18 0
-18 2 -5 12 9 6 16 14 16 16 0 8 -148 -40 -182 -58 -14 -8 -35 -14 -45 -14
-10 0 -23 -4 -29 -8 -5 -5 -29 -14 -53 -21 -56 -16 -91 -39 -91 -60 -1 -22
-28 -56 -37 -47 -5 4 0 13 10 20 9 7 17 19 17 26 0 40 -94 -94 -115 -164 -12
-40 -12 -45 3 -49 13 -4 13 -5 2 -6 -8 0 -20 -9 -27 -19 -11 -18 -7 -18 73 2
46 11 86 17 90 14 3 -4 17 -48 30 -100 23 -87 23 -94 7 -105 -9 -7 -23 -13
-31 -13 -16 0 -13 -29 16 -123 l17 -59 72 109 c59 89 69 109 55 114 -11 4 -24
38 -42 108 l-25 103 -27 -21 c-22 -18 -28 -19 -35 -7 -4 8 -17 14 -27 13 -27
-3 -29 13 -7 49 33 54 81 80 251 134 91 29 230 74 310 100 80 26 195 62 255
80 61 18 119 36 130 40 26 11 348 115 555 180 91 29 273 88 405 131 132 43
290 93 350 113 61 19 191 60 290 92 175 56 183 58 290 58 101 0 118 -3 210
-36 55 -20 164 -59 243 -87 174 -61 448 -159 582 -209 30 -11 127 -46 215 -77
88 -31 207 -74 265 -95 58 -21 207 -75 331 -119 125 -44 237 -85 250 -90 22
-9 126 -46 477 -170 167 -59 179 -65 211 -100 43 -47 53 -87 52 -205 -1 -106
-2 -112 -26 -133 -15 -13 -22 -23 -18 -23 4 0 22 12 38 28 17 15 68 58 115 96
112 91 110 90 77 82 -16 -4 -41 -18 -55 -32 l-27 -24 -6 77 c-5 66 -13 91 -49
161 -24 45 -49 82 -54 82 -18 1 -71 48 -63 56 4 4 13 -1 21 -11 7 -10 18 -15
24 -11 7 4 12 1 12 -9 0 -9 4 -13 10 -10 19 12 -14 44 -59 56 -25 7 -49 17
-52 22 -4 5 -31 11 -60 13 -43 2 -54 6 -52 19 1 13 -5 15 -23 11 -13 -4 -24
-2 -24 3 0 6 -7 8 -15 5 -8 -4 -12 -10 -9 -15 3 -5 -7 -9 -23 -9 -25 1 -26 2
-10 14 26 20 21 30 -20 44 -66 23 -84 25 -108 12 -14 -7 -31 -9 -42 -5 -15 6
-12 9 15 15 18 4 36 11 40 15 4 5 -3 5 -15 2 -14 -3 -23 -1 -23 6 0 7 -5 5
-10 -3 -6 -9 -10 -10 -10 -3 0 7 -15 18 -32 26 -138 59 -243 98 -276 102 -13
2 -33 10 -45 18 -12 8 -47 20 -77 28 -30 7 -65 19 -77 27 -13 8 -30 12 -38 8
-8 -3 -23 4 -34 16 -15 15 -27 19 -48 14 -17 -4 -23 -3 -15 2 9 6 1 12 -27 20
-21 7 -56 20 -78 29 -21 9 -47 15 -58 14 -11 -2 -17 0 -13 4 4 4 -23 18 -59
31 -70 25 -92 24 -55 -2 28 -20 28 -34 0 -33 -13 0 -17 3 -10 6 17 7 15 23 -2
23 -8 0 -16 7 -18 16 -2 10 -25 24 -58 35 -59 19 -70 18 -50 -6 9 -11 22 -14
41 -10 15 3 30 1 34 -4 3 -6 1 -11 -6 -11 -8 0 -8 -4 2 -16 10 -12 1 -11 -42
6 -30 12 -63 22 -74 24 -11 2 -33 10 -50 18 -16 8 -48 21 -70 28 -22 6 -59 20
-82 31 -24 10 -49 19 -57 19 -19 0 -126 41 -126 49 0 3 -14 7 -32 8 -17 1 -36
7 -42 13 -13 13 9 13 34 0 20 -11 50 -4 50 12 0 6 -7 8 -15 4 -8 -3 -15 -1
-15 4 0 6 6 10 13 11 15 1 -22 17 -42 18 -11 1 -11 -2 -1 -14 10 -12 10 -15
-1 -15 -8 0 -21 5 -29 10 -13 9 -13 11 0 21 13 9 13 10 -2 6 -40 -13 -89 -19
-105 -12 -16 6 -15 8 5 16 13 5 35 6 49 3 18 -5 24 -3 19 5 -4 6 -13 11 -20
11 -8 0 -35 9 -61 21 -25 11 -49 18 -52 16 -2 -3 5 -8 16 -12 14 -4 21 -15 21
-31 l0 -24 -52 21 c-29 11 -62 22 -72 24 -18 4 -114 39 -196 71 -82 32 -192
55 -292 61 -60 3 -108 10 -108 15 0 9 -27 10 -47 1z m-283 -102 c0 -10 -24
-21 -48 -21 -13 0 -12 3 4 15 21 16 44 19 44 6z m-330 -112 c0 -12 -47 -22
-67 -14 -15 5 -13 9 12 19 31 13 55 11 55 -5z m1500 -9 c0 -13 -20 -13 -40 0
-12 8 -9 10 13 10 15 0 27 -4 27 -10z m-1580 -19 c0 -5 -12 -11 -27 -14 -16
-3 -39 -8 -53 -12 -23 -6 -23 -6 5 14 30 21 75 28 75 12z m-173 -57 c-3 -3
-12 -4 -19 -1 -8 3 -5 6 6 6 11 1 17 -2 13 -5z m-107 -14 c0 -5 -7 -7 -15 -4
-8 4 -15 8 -15 10 0 2 7 4 15 4 8 0 15 -4 15 -10z m-45 -19 c3 -5 1 -12 -5
-16 -5 -3 -10 1 -10 9 0 18 6 21 15 7z m-95 -31 c0 -5 -4 -10 -9 -10 -6 0 -13
5 -16 10 -3 6 1 10 9 10 9 0 16 -4 16 -10z m-41 -26 c10 -9 -35 -3 -49 6 -11
8 -7 9 15 4 17 -4 32 -8 34 -10z m-74 -24 c-28 -12 -45 -12 -45 0 0 6 15 10
33 9 27 0 29 -2 12 -9z m-125 -26 c0 -11 -34 -33 -50 -33 -10 -1 -6 6 10 19
26 20 40 25 40 14z m-95 -30 c-9 -9 -19 -13 -23 -10 -3 4 0 11 8 16 24 15 33
11 15 -6z m3163 -34 c1 0 2 -5 2 -11 0 -14 -59 -4 -75 12 -9 10 5 10 73 -1z
m-3331 -36 c-3 -3 -12 -4 -19 -1 -8 3 -5 6 6 6 11 1 17 -2 13 -5z m3568 -54
c3 -6 -1 -7 -9 -4 -18 7 -21 14 -7 14 6 0 13 -4 16 -10z m-3798 -26 c-3 -3
-12 -4 -19 -1 -8 3 -5 6 6 6 11 1 17 -2 13 -5z m3853 -4 c0 -5 -4 -10 -10 -10
-5 0 -10 5 -10 10 0 6 5 10 10 10 6 0 10 -4 10 -10z m-3893 -6 c-3 -3 -12 -4
-19 -1 -8 3 -5 6 6 6 11 1 17 -2 13 -5z m4009 -36 c4 -5 -4 -8 -17 -6 -12 1
-24 8 -26 15 -5 14 34 6 43 -9z m69 2 c3 -5 -1 -10 -9 -10 -9 0 -16 5 -16 10
0 6 4 10 9 10 6 0 13 -4 16 -10z m-4225 -10 c-8 -5 -26 -10 -40 -10 -20 0 -22
2 -10 10 8 5 26 10 40 10 20 0 22 -2 10 -10z m-110 -30 c11 -7 7 -10 -18 -10
-20 0 -31 4 -27 10 8 13 26 13 45 0z m4370 0 c20 -6 21 -8 5 -8 -11 0 -29 3
-40 8 -25 11 1 11 35 0z m100 -36 c0 -8 -4 -12 -10 -9 -5 3 -10 10 -10 16 0 5
5 9 10 9 6 0 10 -7 10 -16z m-4700 -33 c0 -6 -4 -13 -10 -16 -5 -3 -10 1 -10
9 0 9 5 16 10 16 6 0 10 -4 10 -9z m-30 -5 c0 -11 -19 -15 -25 -6 -3 5 1 10 9
10 9 0 16 -2 16 -4z m4853 -13 c-7 -2 -19 -2 -25 0 -7 3 -2 5 12 5 14 0 19 -2
13 -5z m-4903 -7 c0 -3 -4 -8 -10 -11 -5 -3 -10 -1 -10 4 0 6 5 11 10 11 6 0
10 -2 10 -4z m-50 -21 c-7 -8 -22 -15 -34 -15 -20 0 -19 1 4 14 34 19 45 19
30 1z m5070 -15 c0 -5 -2 -10 -4 -10 -3 0 -8 5 -11 10 -3 6 -1 10 4 10 6 0 11
-4 11 -10z m-5143 -6 c-3 -3 -12 -4 -19 -1 -8 3 -5 6 6 6 11 1 17 -2 13 -5z
m-68 -17 c-2 -1 -13 -9 -24 -17 -19 -14 -19 -14 -6 3 7 9 18 17 24 17 6 0 8
-1 6 -3z m38 -3 c-3 -3 -12 -4 -19 -1 -8 3 -5 6 6 6 11 1 17 -2 13 -5z m5413
-54 c0 -5 -5 -10 -11 -10 -5 0 -7 5 -4 10 3 6 8 10 11 10 2 0 4 -4 4 -10z m80
-32 c0 -10 -1 -10 -39 3 -43 15 -40 29 4 15 19 -6 35 -14 35 -18z m-5670 -36
c0 -5 -7 -17 -16 -28 -8 -10 -14 -14 -11 -9 2 6 7 18 10 28 7 17 17 23 17 9z
m-39 -105 c-8 -8 -11 -7 -11 4 0 20 13 34 18 19 3 -7 -1 -17 -7 -23z"/>
<path d="M3212 5191 c4 -13 18 -16 19 -4 0 4 -5 9 -11 12 -7 2 -11 -2 -8 -8z"/>
<path d="M3170 5180 c-12 -8 -11 -10 8 -10 12 0 22 5 22 10 0 13 -11 13 -30 0z"/>
<path d="M3798 5173 c7 -3 16 -2 19 1 4 3 -2 6 -13 5 -11 0 -14 -3 -6 -6z"/>
<path d="M3865 5160 c-3 -5 1 -10 10 -10 9 0 13 5 10 10 -3 6 -8 10 -10 10 -2
0 -7 -4 -10 -10z"/>
<path d="M3944 5162 c4 -7 1 -12 -8 -12 -8 0 -18 -4 -21 -10 -3 -5 3 -10 13
-10 23 0 37 26 20 36 -7 4 -8 3 -4 -4z"/>
<path d="M3128 5153 c7 -3 16 -2 19 1 4 3 -2 6 -13 5 -11 0 -14 -3 -6 -6z"/>
<path d="M3970 5130 c0 -5 9 -10 20 -10 11 0 20 5 20 10 0 6 -9 10 -20 10 -11
0 -20 -4 -20 -10z"/>
<path d="M4020 5100 c-12 -8 -10 -10 8 -10 13 0 20 4 17 10 -7 12 -6 12 -25 0z"/>
<path d="M4065 5090 c-3 -5 -2 -10 4 -10 5 0 13 5 16 10 3 6 2 10 -4 10 -5 0
-13 -4 -16 -10z"/>
<path d="M4098 5073 c7 -3 16 -2 19 1 4 3 -2 6 -13 5 -11 0 -14 -3 -6 -6z"/>
<path d="M4390 4968 c0 -11 47 -11 54 0 3 5 -8 9 -24 9 -17 0 -30 -4 -30 -9z"/>
<path d="M4472 4943 c5 -24 27 -28 25 -4 -1 12 -7 21 -15 21 -7 0 -12 -8 -10
-17z"/>
<path d="M4430 4940 c0 -5 5 -10 11 -10 5 0 7 5 4 10 -3 6 -8 10 -11 10 -2 0
-4 -4 -4 -10z"/>
<path d="M4510 4919 c0 -5 5 -7 10 -4 6 3 10 8 10 11 0 2 -4 4 -10 4 -5 0 -10
-5 -10 -11z"/>
<path d="M4643 4883 c9 -2 23 -2 30 0 6 3 -1 5 -18 5 -16 0 -22 -2 -12 -5z"/>
<path d="M4670 4860 c0 -5 5 -10 11 -10 5 0 7 5 4 10 -3 6 -8 10 -11 10 -2 0
-4 -4 -4 -10z"/>
<path d="M4720 4840 c8 -5 20 -10 25 -10 6 0 3 5 -5 10 -8 5 -19 10 -25 10 -5
0 -3 -5 5 -10z"/>
<path d="M2993 4473 c-72 -3 -113 -8 -113 -14 0 -7 15 -9 43 -6 23 4 128 9
233 13 l191 6 44 -38 c24 -21 68 -60 97 -88 l52 -50 0 -93 0 -93 -145 0 -145
0 0 45 c0 36 -5 51 -24 69 -23 20 -32 22 -118 18 -79 -3 -96 -7 -115 -25 -20
-19 -22 -29 -16 -80 9 -86 15 -89 220 -88 l168 1 89 -85 89 -85 -6 -145 -6
-145 -76 -75 c-42 -41 -83 -79 -93 -84 -9 -4 -84 -9 -167 -10 -82 -1 -180 -4
-217 -7 -76 -7 -72 -9 -195 107 l-63 59 -1 68 c-1 104 -6 109 -60 58 l-47 -44
5 -88 5 -89 61 -58 c34 -33 77 -70 95 -84 l33 -26 232 7 c270 9 228 -8 404
162 l112 109 3 153 3 153 -52 50 c-29 28 -53 55 -53 59 0 5 18 23 40 40 l41
32 117 -1 117 -2 34 32 c20 19 36 28 40 21 3 -5 1 -113 -6 -239 -6 -125 -12
-240 -12 -255 -1 -17 -14 -39 -35 -60 -34 -33 -35 -34 -42 -144 l-6 -111 83
-6 c46 -4 143 -9 214 -12 l130 -6 52 49 53 48 8 108 c6 85 5 109 -5 112 -7 2
-20 6 -28 9 -10 3 -15 17 -15 42 0 47 19 295 26 342 l5 33 112 -7 112 -7 40
36 c22 20 43 32 46 28 7 -7 -21 -278 -56 -545 l-15 -118 75 -93 c60 -76 80
-95 107 -99 18 -3 123 -20 233 -38 l201 -32 114 76 c63 42 134 93 157 114 l43
38 45 223 c60 300 56 286 88 290 33 4 33 -2 8 -111 -11 -45 -31 -138 -46 -207
-35 -167 -38 -175 -84 -218 -35 -33 -42 -47 -60 -128 -30 -133 -31 -130 37
-143 64 -12 148 -31 265 -60 l79 -19 36 31 c60 51 76 75 92 135 8 31 20 56 25
55 6 -1 19 -31 30 -67 11 -36 22 -66 25 -66 15 2 102 93 93 98 -5 4 -36 93
-68 197 -86 280 -75 270 -118 101 -20 -79 -37 -146 -37 -149 0 -3 14 -10 31
-16 28 -10 30 -12 23 -48 -4 -21 -13 -55 -20 -77 -8 -21 -14 -46 -14 -55 0
-34 -19 -40 -83 -24 -34 8 -118 27 -186 43 -68 16 -126 31 -128 34 -6 5 10
100 28 169 9 35 13 38 42 35 l32 -3 22 100 c12 55 38 170 58 255 54 230 54
225 15 238 -23 9 -30 16 -26 29 2 10 12 52 21 93 24 114 -9 109 273 43 40 -10
77 -22 81 -28 5 -5 47 -119 93 -253 l84 -242 23 24 c12 13 18 25 12 27 -6 2
-39 90 -75 194 -84 246 -90 261 -118 269 -61 17 -269 66 -305 72 -40 6 -44 4
-100 -50 -32 -31 -62 -56 -68 -56 -5 0 -28 26 -50 57 -57 79 -93 119 -101 111
-4 -4 18 -38 48 -75 30 -37 65 -83 77 -100 l22 -33 -41 -207 c-72 -360 -89
-444 -95 -464 -4 -11 -51 -50 -106 -86 -85 -57 -103 -65 -131 -60 -105 18
-340 56 -383 62 -45 6 -54 12 -90 57 -22 28 -48 60 -58 71 -56 65 -57 69 -36
222 26 193 59 471 59 502 l0 26 -27 -27 c-14 -15 -30 -23 -34 -19 -4 4 -2 59
4 121 7 86 7 116 -2 121 -6 4 -35 8 -64 8 -42 0 -45 -1 -12 -4 22 -2 44 -8 49
-13 9 -9 -12 -260 -23 -272 -3 -4 -54 -2 -113 4 l-108 11 0 33 0 34 -50 0
c-27 0 -50 -4 -50 -9 0 -5 -7 -94 -15 -197 -8 -104 -16 -234 -17 -289 l-3
-100 28 -3 28 -3 -7 -92 c-4 -51 -10 -99 -15 -108 -9 -17 -16 -17 -241 1 -64
6 -126 10 -137 10 -19 0 -21 6 -20 63 0 34 4 82 7 107 6 41 10 45 38 48 l31 3
12 237 c7 130 14 264 14 297 l2 60 -47 3 c-45 3 -48 1 -48 -20 0 -13 -4 -28
-9 -33 -6 -6 -57 -9 -115 -7 l-106 3 0 139 0 140 25 6 c14 3 34 4 44 1 10 -2
25 -1 32 4 9 6 -5 9 -38 9 -48 0 -54 -3 -110 -55 -32 -30 -62 -55 -66 -55 -5
0 -37 25 -70 55 l-62 55 -140 -2 c-77 -1 -191 -4 -252 -5z m130 -340 c8 -10
17 -29 19 -43 3 -23 -1 -25 -40 -28 -53 -4 -92 18 -92 52 0 31 7 36 55 36 27
0 47 -6 58 -17z"/>
<path d="M3808 4463 c12 -2 32 -2 45 0 12 2 2 4 -23 4 -25 0 -35 -2 -22 -4z"/>
<path d="M4065 4450 c63 -8 191 -13 184 -6 -2 2 -58 6 -124 9 -81 3 -100 2
-60 -3z"/>
<path d="M2487 4433 c27 -5 30 -15 38 -130 l7 -93 -32 0 -33 0 7 -97 c4 -54
17 -201 29 -328 l22 -230 -44 -55 c-24 -30 -58 -72 -76 -92 l-31 -37 -135 -16
c-74 -9 -161 -20 -194 -25 -115 -19 -136 -15 -211 39 -116 83 -114 80 -124
146 -11 76 -36 227 -55 330 -8 44 -17 100 -20 125 -3 25 -11 62 -17 83 -11 35
-15 38 -40 35 -32 -5 -31 -7 -53 111 -9 46 -13 87 -8 92 5 5 26 13 48 18 28 6
32 9 15 10 -36 0 -71 -18 -124 -65 -53 -48 -54 -56 -30 -181 l17 -82 36 -3
c40 -3 32 18 66 -188 8 -47 29 -167 47 -268 l33 -182 70 -47 c39 -26 76 -53
83 -60 25 -24 62 -25 215 -4 83 12 181 24 217 27 36 4 70 9 76 13 72 40 264
259 264 302 0 25 -33 409 -44 522 -5 45 -3 51 30 85 28 29 33 41 30 66 -3 17
-8 66 -11 109 l-7 77 -41 -1 c-23 -1 -32 -4 -20 -6z"/>
<path d="M2972 4430 l-103 -8 -79 -73 -78 -74 5 -135 c6 -144 12 -162 63 -194
14 -8 45 -34 70 -56 l45 -40 163 6 163 7 29 -28 c28 -27 30 -34 30 -100 0
-103 -14 -114 -151 -122 l-104 -5 -27 28 c-16 17 -28 43 -30 64 -3 34 -4 35
-53 38 -27 2 -78 1 -111 -3 l-61 -6 5 -72 c3 -39 10 -76 16 -82 6 -5 42 -37
80 -70 l69 -59 161 2 c89 1 188 5 222 8 59 6 63 8 137 79 l77 73 0 131 c0 147
12 120 -108 233 l-60 58 -167 -7 -166 -6 -29 28 c-28 27 -30 33 -29 104 0 71
2 78 28 98 23 18 42 22 135 24 l108 4 29 -33 c20 -22 29 -43 29 -66 0 -19 6
-36 13 -38 6 -2 58 -2 115 0 l102 4 0 73 0 73 -71 63 c-40 35 -79 69 -88 76
-18 14 -204 15 -379 3z m353 -30 c-4 -6 -44 -9 -93 -8 l-87 2 85 6 c47 3 89 7
93 8 5 1 5 -2 2 -8z m-435 -10 c0 -5 -5 -10 -11 -10 -5 0 -7 5 -4 10 3 6 8 10
11 10 2 0 4 -4 4 -10z m177 4 c-3 -3 -12 -4 -19 -1 -8 3 -5 6 6 6 11 1 17 -2
13 -5z m298 -14 c10 -11 14 -20 9 -20 -5 0 -15 9 -22 20 -7 11 -11 20 -9 20 2
0 12 -9 22 -20z m-250 -70 c-3 -5 -15 -10 -26 -10 -11 0 -17 5 -14 10 3 6 15
10 26 10 11 0 17 -4 14 -10z m75 0 c0 -5 -6 -10 -14 -10 -8 0 -18 5 -21 10 -3
6 3 10 14 10 12 0 21 -4 21 -10z m40 0 c0 -5 -5 -10 -11 -10 -5 0 -7 5 -4 10
3 6 8 10 11 10 2 0 4 -4 4 -10z m-290 -60 c0 -5 -4 -10 -10 -10 -5 0 -10 5
-10 10 0 6 5 10 10 10 6 0 10 -4 10 -10z m537 -82 c-3 -7 -5 -2 -5 12 0 14 2
19 5 13 2 -7 2 -19 0 -25z m-730 -30 c-3 -7 -5 -2 -5 12 0 14 2 19 5 13 2 -7
2 -19 0 -25z m170 -40 c-3 -8 -6 -5 -6 6 -1 11 2 17 5 13 3 -3 4 -12 1 -19z
m43 -89 c0 -4 -7 -6 -15 -3 -8 4 -15 10 -15 15 0 4 7 6 15 3 8 -4 15 -10 15
-15z m357 -22 c0 -9 -11 -11 -36 -8 l-36 5 35 7 c19 3 35 7 36 8 0 0 1 -5 1
-12z m-174 -4 c-7 -2 -19 -2 -25 0 -7 3 -2 5 12 5 14 0 19 -2 13 -5z m-323
-291 c0 -4 -9 -13 -20 -20 -17 -10 -20 -10 -20 6 0 11 8 18 20 19 11 1 20 -1
20 -5z m93 1 c-7 -2 -21 -2 -30 0 -10 3 -4 5 12 5 17 0 24 -2 18 -5z m560 -68
c-3 -9 -8 -14 -10 -11 -3 3 -2 9 2 15 9 16 15 13 8 -4z m-668 -25 c3 -5 2 -10
-4 -10 -5 0 -13 5 -16 10 -3 6 -2 10 4 10 5 0 13 -4 16 -10z m230 -30 c3 -5
-1 -10 -10 -10 -9 0 -13 5 -10 10 3 6 8 10 10 10 2 0 7 -4 10 -10z m148 3
c-13 -2 -33 -2 -45 0 -13 2 -3 4 22 4 25 0 35 -2 23 -4z m-303 -43 c0 -5 -4
-10 -10 -10 -5 0 -10 5 -10 10 0 6 5 10 10 10 6 0 10 -4 10 -10z"/>
<path d="M3660 4325 l0 -115 85 0 c83 0 85 0 85 24 0 14 4 27 9 31 5 3 42 2
81 -1 l72 -7 -6 -46 c-3 -25 -11 -163 -17 -306 -6 -143 -15 -270 -20 -282 -6
-16 -17 -23 -34 -23 -30 0 -38 -23 -33 -101 l3 -54 90 -6 c50 -4 126 -8 170
-10 l80 -4 8 70 c9 83 5 95 -28 95 -19 0 -25 5 -25 23 0 39 43 622 46 626 5 6
135 1 145 -5 5 -3 9 -18 9 -34 0 -27 2 -29 58 -35 31 -3 69 -8 84 -11 30 -6
31 1 44 147 l6 76 -53 7 c-110 13 -429 35 -579 41 -85 3 -183 8 -217 11 l-63
5 0 -116z m50 55 c0 -11 -4 -20 -10 -20 -5 0 -10 9 -10 20 0 11 5 20 10 20 6
0 10 -9 10 -20z m93 13 c-13 -2 -33 -2 -45 0 -13 2 -3 4 22 4 25 0 35 -2 23
-4z m182 -3 c-3 -5 -12 -10 -18 -10 -7 0 -6 4 3 10 19 12 23 12 15 0z m238
-17 c-13 -2 -33 -2 -45 0 -13 2 -3 4 22 4 25 0 35 -2 23 -4z m-170 -10 c-7 -2
-19 -2 -25 0 -7 3 -2 5 12 5 14 0 19 -2 13 -5z m474 -85 c-2 -13 -4 -3 -4 22
0 25 2 35 4 23 2 -13 2 -33 0 -45z m-717 28 c0 -3 -4 -8 -10 -11 -5 -3 -10 -1
-10 4 0 6 5 11 10 11 6 0 10 -2 10 -4z m118 -3 c-15 -2 -42 -2 -60 0 -18 2 -6
4 27 4 33 0 48 -2 33 -4z m-213 -33 c-4 -6 12 -10 39 -10 28 0 46 -5 46 -11 0
-8 -14 -9 -42 -5 -24 4 -49 8 -55 8 -23 2 -13 20 15 27 2 1 0 -3 -3 -9z m642
4 c-3 -3 -12 -4 -19 -1 -8 3 -5 6 6 6 11 1 17 -2 13 -5z m38 -4 c3 -5 1 -10
-4 -10 -6 0 -11 5 -11 10 0 6 2 10 4 10 3 0 8 -4 11 -10z m-368 -32 c-3 -7 -5
-2 -5 12 0 14 2 19 5 13 2 -7 2 -19 0 -25z m164 -64 c-7 -51 -9 -53 -10 -19 0
22 2 50 5 63 11 41 14 17 5 -44z m329 41 c0 -17 -5 -25 -17 -24 -11 0 -13 3
-5 6 6 2 12 13 12 24 0 10 2 19 5 19 3 0 5 -11 5 -25z m-90 -9 c0 -3 -4 -8
-10 -11 -5 -3 -10 -1 -10 4 0 6 5 11 10 11 6 0 10 -2 10 -4z m-407 -86 c-7
-28 -13 -25 -13 6 0 14 4 23 9 20 5 -3 7 -15 4 -26z m-6 -102 c-3 -8 -6 -5 -6
6 -1 11 2 17 5 13 3 -3 4 -12 1 -19z m150 -10 c-3 -7 -5 -2 -5 12 0 14 2 19 5
13 2 -7 2 -19 0 -25z m-160 -80 c-3 -7 -5 -2 -5 12 0 14 2 19 5 13 2 -7 2 -19
0 -25z m163 28 c0 -3 -4 -8 -10 -11 -5 -3 -10 -1 -10 4 0 6 5 11 10 11 6 0 10
-2 10 -4z m-13 -113 c-3 -10 -5 -4 -5 12 0 17 2 24 5 18 2 -7 2 -21 0 -30z
m-150 -75 c-3 -7 -5 -2 -5 12 0 14 2 19 5 13 2 -7 2 -19 0 -25z m0 -70 c-3 -8
-6 -5 -6 6 -1 11 2 17 5 13 3 -3 4 -12 1 -19z m135 -30 c2 -21 0 -38 -4 -38
-4 0 -8 21 -7 48 1 52 6 48 11 -10z m-142 -54 c0 -8 -4 -12 -10 -9 -5 3 -10
13 -10 21 0 8 5 12 10 9 6 -3 10 -13 10 -21z m140 -14 c0 -5 -2 -10 -4 -10 -3
0 -8 5 -11 10 -3 6 -1 10 4 10 6 0 11 -4 11 -10z m-208 -75 c1 -30 0 -51 -4
-47 -8 10 -15 102 -6 102 3 0 8 -25 10 -55z m268 15 c0 -11 -2 -20 -5 -20 -2
0 -9 9 -15 20 -9 16 -8 20 5 20 8 0 15 -9 15 -20z"/>
<path d="M4298 4433 c12 -2 30 -2 40 0 9 3 -1 5 -23 4 -22 0 -30 -2 -17 -4z"/>
<path d="M2383 4423 c9 -2 25 -2 35 0 9 3 1 5 -18 5 -19 0 -27 -2 -17 -5z"/>
<path d="M4413 4423 c15 -2 37 -2 50 0 12 2 0 4 -28 4 -27 0 -38 -2 -22 -4z"/>
<path d="M2328 4413 c7 -3 16 -2 19 1 4 3 -2 6 -13 5 -11 0 -14 -3 -6 -6z"/>
<path d="M2188 4403 c6 -2 18 -2 25 0 6 3 1 5 -13 5 -14 0 -19 -2 -12 -5z"/>
<path d="M2118 4393 c7 -3 16 -2 19 1 4 3 -2 6 -13 5 -11 0 -14 -3 -6 -6z"/>
<path d="M2276 4379 c-88 -11 -161 -21 -163 -23 -3 -2 1 -38 8 -80 l13 -76 32
0 c40 0 35 21 69 -295 13 -126 27 -246 30 -265 4 -29 -1 -42 -23 -67 -26 -27
-37 -31 -125 -42 -93 -12 -98 -12 -127 9 -16 12 -30 24 -30 28 0 4 -5 34 -10
67 -6 33 -15 92 -21 130 -6 39 -15 99 -20 135 -27 175 -37 255 -33 262 3 4 16
8 29 8 13 0 26 4 29 8 3 5 0 41 -6 80 -8 59 -14 72 -28 72 -10 0 -90 -11 -177
-25 -87 -14 -164 -25 -171 -25 -13 0 -9 -47 9 -122 9 -35 13 -38 44 -38 19 0
35 -3 35 -7 0 -18 90 -555 105 -628 2 -12 42 -47 95 -83 l90 -63 58 10 c31 5
100 14 152 21 153 18 230 31 230 38 0 4 28 40 63 81 l62 74 -12 136 c-6 75
-19 211 -27 304 -22 230 -22 224 14 232 28 6 30 9 30 55 0 26 -3 62 -6 79 -8
37 6 36 -218 10z m-116 -60 c0 -5 -4 -9 -10 -9 -5 0 -10 7 -10 16 0 8 5 12 10
9 6 -3 10 -10 10 -16z m113 14 c-13 -2 -33 -2 -45 0 -13 2 -3 4 22 4 25 0 35
-2 23 -4z m190 -33 c3 -11 1 -20 -4 -20 -5 0 -9 9 -9 20 0 11 2 20 4 20 2 0 6
-9 9 -20z m-573 -64 c0 -52 -6 -43 -13 18 -3 30 -1 43 4 35 5 -8 9 -32 9 -53z
m307 12 c-3 -7 -5 -2 -5 12 0 14 2 19 5 13 2 -7 2 -19 0 -25z m-23 -10 c-4 -6
-10 -5 -15 3 -14 22 -10 33 6 19 8 -7 12 -17 9 -22z m289 25 c-7 -2 -19 -2
-25 0 -7 3 -2 5 12 5 14 0 19 -2 13 -5z m-760 -10 c-7 -2 -21 -2 -30 0 -10 3
-4 5 12 5 17 0 24 -2 18 -5z m537 -9 c0 -8 -5 -12 -10 -9 -6 4 -8 11 -5 16 9
14 15 11 15 -7z m-640 2 c0 -3 -4 -8 -10 -11 -5 -3 -10 -1 -10 4 0 6 5 11 10
11 6 0 10 -2 10 -4z m30 -6 c0 -5 -2 -10 -4 -10 -3 0 -8 5 -11 10 -3 6 -1 10
4 10 6 0 11 -4 11 -10z m-24 -42 c-9 -5 -14 -14 -11 -19 4 -5 11 -7 16 -4 5 4
9 2 9 -4 0 -20 -19 -21 -29 -2 -14 25 -4 52 16 44 13 -5 13 -7 -1 -15z m794
12 c0 -5 -5 -10 -11 -10 -5 0 -7 5 -4 10 3 6 8 10 11 10 2 0 4 -4 4 -10z
m-147 -45 c-3 -9 -8 -14 -10 -11 -3 3 -2 9 2 15 9 16 15 13 8 -4z m-414 -43
c0 -24 -1 -25 -9 -7 -12 28 -12 47 0 40 6 -3 10 -18 9 -33z m568 6 c-3 -7 -5
-2 -5 12 0 14 2 19 5 13 2 -7 2 -19 0 -25z m-712 -8 c3 -6 -1 -7 -9 -4 -18 7
-21 14 -7 14 6 0 13 -4 16 -10z m568 -10 c-3 -12 -8 -19 -11 -16 -5 6 5 36 12
36 2 0 2 -9 -1 -20z m-586 -32 c-3 -8 -6 -5 -6 6 -1 11 2 17 5 13 3 -3 4 -12
1 -19z m730 -30 c-3 -7 -5 -2 -5 12 0 14 2 19 5 13 2 -7 2 -19 0 -25z m-560 0
c-3 -8 -6 -5 -6 6 -1 11 2 17 5 13 3 -3 4 -12 1 -19z m410 -10 c-3 -8 -6 -5
-6 6 -1 11 2 17 5 13 3 -3 4 -12 1 -19z m10 -50 c-3 -8 -6 -5 -6 6 -1 11 2 17
5 13 3 -3 4 -12 1 -19z m-564 -7 c2 -10 1 -25 -4 -32 -6 -10 -9 -4 -9 19 0 36
5 42 13 13z m174 -73 c-3 -8 -6 -5 -6 6 -1 11 2 17 5 13 3 -3 4 -12 1 -19z m0
-60 c-3 -7 -5 -2 -5 12 0 14 2 19 5 13 2 -7 2 -19 0 -25z m560 -10 c-3 -8 -6
-5 -6 6 -1 11 2 17 5 13 3 -3 4 -12 1 -19z m-700 -60 c-3 -8 -6 -5 -6 6 -1 11
2 17 5 13 3 -3 4 -12 1 -19z m560 0 c-3 -8 -6 -5 -6 6 -1 11 2 17 5 13 3 -3 4
-12 1 -19z m150 -40 c-3 -7 -5 -2 -5 12 0 14 2 19 5 13 2 -7 2 -19 0 -25z
m-560 0 c-3 -8 -6 -5 -6 6 -1 11 2 17 5 13 3 -3 4 -12 1 -19z m20 -40 c-3 -8
-6 -5 -6 6 -1 11 2 17 5 13 3 -3 4 -12 1 -19z m-20 -50 c-3 -7 -5 -2 -5 12 0
14 2 19 5 13 2 -7 2 -19 0 -25z m560 -10 c-3 -8 -6 -5 -6 6 -1 11 2 17 5 13 3
-3 4 -12 1 -19z m13 -65 c0 -7 -4 -13 -10 -13 -5 0 -10 12 -10 28 0 21 2 24
10 12 5 -8 10 -21 10 -27z m-50 -42 c-10 -21 -30 -37 -30 -26 0 14 21 45 31
45 6 0 6 -7 -1 -19z m-190 -21 c0 -5 -5 -10 -11 -10 -5 0 -7 5 -4 10 3 6 8 10
11 10 2 0 4 -4 4 -10z m-27 -17 c3 -5 -17 -8 -43 -8 -26 0 -46 3 -43 8 2 4 22
7 43 7 21 0 41 -3 43 -7z m-136 -9 c-3 -3 -12 -4 -19 -1 -8 3 -5 6 6 6 11 1
17 -2 13 -5z m-207 -14 c-8 -5 -19 -10 -25 -10 -5 0 -3 5 5 10 8 5 20 10 25
10 6 0 3 -5 -5 -10z m470 -36 c-35 -7 -98 -9 -94 -2 3 5 29 7 57 7 29 -1 45
-3 37 -5z m-190 -18 c0 -3 -4 -8 -10 -11 -5 -3 -10 -1 -10 4 0 6 5 11 10 11 6
0 10 -2 10 -4z m-131 -32 c10 -9 -45 -3 -59 6 -11 7 -5 8 20 4 19 -4 37 -8 39
-10z"/>
<path d="M1910 4370 l-35 -7 32 -2 c29 -1 33 -5 38 -38 3 -21 10 -63 16 -94
12 -70 5 -89 -32 -89 -25 0 -29 -3 -24 -22 4 -20 32 -206 67 -448 12 -84 35
-120 77 -120 l26 0 -31 19 c-26 16 -32 27 -37 67 -4 27 -11 78 -17 114 -44
283 -49 350 -25 370 19 16 35 4 35 -26 0 -22 4 -25 28 -23 15 2 32 0 38 -4 7
-4 15 -42 19 -84 4 -43 15 -145 26 -228 24 -187 24 -183 -3 -188 -13 -3 1 -3
31 -1 71 4 105 33 97 84 -4 29 -21 177 -52 468 -5 51 -6 52 -40 52 -38 0 -37
-2 -54 124 -6 44 -12 81 -13 83 -2 1 -19 -11 -38 -27 -43 -37 -56 -37 -64 0
-7 31 -9 32 -65 20z"/>
<path d="M2747 4363 c-4 -3 -7 -11 -7 -17 0 -6 5 -5 12 2 6 6 9 14 7 17 -3 3
-9 2 -12 -2z"/>
<path d="M1770 4350 c-16 -6 -6 -7 30 -3 30 3 57 7 59 9 8 7 -64 2 -89 -6z"/>
<path d="M4855 4313 c-71 -44 -71 -44 -112 -80 -31 -27 -32 -31 -48 -168 -8
-77 -22 -194 -30 -260 -29 -234 -30 -259 -9 -290 11 -16 34 -45 52 -65 17 -19
34 -42 37 -51 8 -23 40 -35 125 -47 41 -6 136 -21 210 -33 l135 -21 91 60 91
61 23 113 c12 62 31 151 41 198 10 47 30 145 44 218 l26 133 -67 90 c-36 49
-74 93 -83 98 -9 5 -47 14 -86 20 -38 6 -128 20 -200 31 -71 11 -141 23 -155
25 -17 4 -43 -6 -85 -32z m220 -22 c34 -7 35 -9 10 -9 -16 0 -43 4 -60 8 -42
11 -1 11 50 1z m238 -38 c26 -3 50 -10 54 -15 3 -6 -8 -8 -28 -4 l-34 6 30
-15 c17 -8 38 -14 47 -15 9 0 20 -4 23 -10 4 -6 -12 -10 -40 -10 -26 0 -44 4
-40 9 3 6 -12 11 -32 13 -36 4 -37 4 -14 14 24 10 23 11 -18 18 -25 4 -39 11
-35 17 3 6 13 7 23 4 9 -4 38 -9 64 -12z m-489 -19 c9 -24 7 -27 -9 -10 -17
17 -19 26 -6 26 5 0 12 -7 15 -16z m-35 -33 c-15 -5 -22 6 -14 19 6 9 10 9 16
-1 5 -8 4 -15 -2 -18z m461 15 c0 -3 -4 -8 -10 -11 -5 -3 -10 -1 -10 4 0 6 5
11 10 11 6 0 10 -2 10 -4z m-281 -19 c-2 -1 -13 -9 -24 -17 -19 -14 -19 -14
-6 3 7 9 18 17 24 17 6 0 8 -1 6 -3z m162 -13 c31 -8 68 -14 81 -14 13 0 34
-9 46 -20 12 -12 23 -16 27 -10 3 6 1 10 -4 10 -6 0 -11 5 -11 12 0 23 31 -18
32 -43 1 -13 7 -31 15 -40 14 -16 8 -75 -8 -85 -5 -3 -9 -22 -9 -42 0 -20 -7
-62 -15 -92 -8 -30 -12 -56 -10 -59 3 -2 5 2 5 9 0 7 3 11 6 8 3 -3 -2 -23
-11 -44 -9 -22 -18 -66 -20 -99 -4 -71 -14 -115 -26 -115 -5 0 -9 -17 -9 -38
0 -31 -5 -41 -30 -56 -18 -10 -29 -24 -28 -34 2 -12 -5 -18 -27 -19 -27 -2
-28 -2 -7 7 27 11 30 24 3 15 -10 -3 -62 1 -116 9 -54 8 -101 13 -105 11 -11
-7 -51 25 -45 36 3 5 -1 6 -11 2 -13 -5 -15 -2 -9 15 4 13 2 22 -4 22 -7 0
-10 37 -9 108 1 59 5 96 8 82 5 -21 8 -17 15 25 4 28 8 82 8 120 0 50 2 62 7
40 5 -18 7 5 5 55 -3 59 -1 74 4 50 8 -32 8 -30 10 22 0 31 6 60 11 63 6 3 10
15 10 25 0 11 18 31 43 48 48 34 89 38 178 16z m56 10 c-3 -3 -12 -4 -19 -1
-8 3 -5 6 6 6 11 1 17 -2 13 -5z m118 -4 c3 -5 2 -10 -4 -10 -5 0 -13 5 -16
10 -3 6 -2 10 4 10 5 0 13 -4 16 -10z m135 -46 c0 -8 -4 -12 -10 -9 -5 3 -10
10 -10 16 0 5 5 9 10 9 6 0 10 -7 10 -16z m50 -55 c0 -6 -4 -7 -10 -4 -5 3
-10 11 -10 16 0 6 5 7 10 4 6 -3 10 -11 10 -16z m-741 -49 c1 -13 0 -13 -9 0
-5 8 -9 26 -9 40 l1 25 8 -25 c4 -14 8 -32 9 -40z m733 -6 c-8 -14 -9 -13 -9
10 0 18 3 24 9 18 7 -7 7 -16 0 -28z m-635 -96 c-3 -7 -5 -2 -5 12 0 14 2 19
5 13 2 -7 2 -19 0 -25z m-110 -30 c-3 -7 -5 -2 -5 12 0 14 2 19 5 13 2 -7 2
-19 0 -25z m-18 -48 c0 -10 -3 -8 -9 5 -12 27 -12 43 0 25 5 -8 9 -22 9 -30z
m720 -50 c-6 -36 -13 -67 -16 -70 -6 -6 7 121 14 133 11 19 12 -3 2 -63z
m-132 28 c-3 -8 -6 -5 -6 6 -1 11 2 17 5 13 3 -3 4 -12 1 -19z m-456 -45 c-9
-16 -10 -16 -11 4 0 12 3 30 7 40 7 16 8 16 11 -4 2 -12 -1 -30 -7 -40z m-148
-58 c-7 -21 -13 -19 -13 6 0 11 4 18 10 14 5 -3 7 -12 3 -20z m574 -7 c-3 -8
-6 -5 -6 6 -1 11 2 17 5 13 3 -3 4 -12 1 -19z m137 -66 c-4 -15 -6 -36 -5 -47
1 -16 0 -17 -8 -5 -5 9 -5 33 3 64 6 27 13 41 14 32 2 -10 0 -30 -4 -44z
m-723 -20 c-6 -2 -11 -13 -11 -24 0 -12 -3 -18 -7 -15 -3 4 0 26 8 49 12 37
14 39 17 18 2 -13 -1 -26 -7 -28z m700 -85 c-10 -9 -11 -8 -5 6 3 10 9 15 12
12 3 -3 0 -11 -7 -18z m-651 -38 c0 -5 -4 -9 -10 -9 -5 0 -10 7 -10 16 0 8 5
12 10 9 6 -3 10 -10 10 -16z m630 -59 c0 -12 -12 -26 -30 -35 -17 -9 -30 -11
-30 -5 0 5 7 10 15 10 9 0 21 11 27 25 14 30 18 31 18 5z m-145 -20 c-3 -5
-13 -10 -21 -10 -8 0 -12 5 -9 10 3 6 13 10 21 10 8 0 12 -4 9 -10z m-238 -6
c-3 -3 -12 -4 -19 -1 -8 3 -5 6 6 6 11 1 17 -2 13 -5z m-187 -20 c0 -8 -5 -12
-10 -9 -6 4 -8 11 -5 16 9 14 15 11 15 -7z m138 -25 c15 0 21 -3 14 -6 -21 -8
-64 6 -56 19 6 9 9 9 12 0 2 -7 16 -12 30 -13z m95 4 c-13 -2 -33 -2 -45 0
-13 2 -3 4 22 4 25 0 35 -2 23 -4z m20 -20 c-13 -2 -33 -2 -45 0 -13 2 -3 4
22 4 25 0 35 -2 23 -4z m102 -22 c-6 -5 -28 -6 -50 -1 l-40 8 50 1 c29 1 45
-3 40 -8z m65 0 c0 -5 -6 -11 -12 -14 -18 -6 -39 3 -32 14 7 12 44 12 44 0z"/>
<path d="M4973 4137 c-18 -12 -33 -29 -33 -37 -1 -8 -18 -132 -39 -275 l-38
-260 24 -31 c24 -33 59 -43 189 -60 47 -6 54 -4 82 22 28 26 33 41 51 149 12
66 33 186 47 268 l26 147 -25 33 c-24 31 -32 35 -126 50 -122 21 -119 21 -158
-6z m110 -22 c35 -6 52 -14 66 -34 19 -26 18 -29 -15 -226 -19 -110 -39 -229
-44 -264 -6 -36 -12 -67 -14 -69 -3 -2 -30 0 -62 4 -65 8 -104 37 -104 78 0
39 65 483 76 515 2 8 13 11 27 8 12 -3 43 -9 70 -12z"/>
<path d="M1688 4333 c7 -3 16 -2 19 1 4 3 -2 6 -13 5 -11 0 -14 -3 -6 -6z"/>
<path d="M2651 4265 l-73 -74 7 -155 8 -155 63 -51 c35 -29 64 -57 64 -62 0
-7 45 -8 135 -3 l135 7 0 -40 c0 -25 8 -49 21 -66 19 -25 25 -26 108 -26 117
0 131 10 131 94 0 99 -4 100 -203 93 l-163 -6 -29 27 c-17 15 -50 43 -75 62
-82 64 -78 55 -90 194 -13 171 -14 167 16 199 14 16 24 30 22 33 -2 2 -37 -30
-77 -71z m476 -540 c15 -11 23 -25 23 -45 0 -29 -2 -30 -43 -30 -29 0 -49 6
-59 18 -21 24 -28 48 -18 58 15 15 73 14 97 -1z"/>
<path d="M1638 4323 c6 -2 18 -2 25 0 6 3 1 5 -13 5 -14 0 -19 -2 -12 -5z"/>
<path d="M1305 4253 c12 -32 44 -198 39 -203 -3 -3 -24 -10 -47 -15 -33 -9
-50 -22 -80 -60 -38 -51 -169 -238 -200 -287 l-17 -28 37 -23 c21 -13 67 -40
103 -59 36 -20 103 -59 149 -87 46 -28 95 -51 108 -51 33 0 22 13 -40 50 -28
17 -59 35 -67 40 -68 44 -182 109 -198 114 -47 15 -47 32 -1 103 82 128 141
203 159 203 9 0 28 9 41 21 13 12 39 34 58 50 l35 28 -13 68 c-26 136 -32 153
-53 153 -15 0 -18 -4 -13 -17z"/>
<path d="M1258 4253 c7 -3 16 -2 19 1 4 3 -2 6 -13 5 -11 0 -14 -3 -6 -6z"/>
<path d="M6385 4240 c3 -5 8 -10 11 -10 2 0 4 5 4 10 0 6 -5 10 -11 10 -5 0
-7 -4 -4 -10z"/>
<path d="M1158 4233 c7 -3 16 -2 19 1 4 3 -2 6 -13 5 -11 0 -14 -3 -6 -6z"/>
<path d="M1130 4195 c-216 -49 -295 -69 -303 -75 -4 -4 0 -39 10 -79 l17 -73
38 6 c50 8 49 -3 -6 -79 -24 -33 -70 -102 -102 -152 -32 -51 -61 -93 -66 -93
-4 0 -15 26 -23 58 -9 31 -25 86 -35 122 -20 68 -15 90 21 90 21 0 25 28 10
76 -5 16 -12 42 -16 57 -6 31 -16 32 -115 2 -25 -7 -72 -20 -105 -30 -139 -39
-156 -46 -151 -63 2 -10 12 -43 22 -75 17 -57 17 -57 51 -55 l35 3 49 -165
c26 -91 55 -187 64 -215 24 -77 65 -226 65 -236 0 -5 -11 -14 -25 -19 -30 -11
-30 -8 -6 -90 14 -52 22 -65 37 -64 17 1 316 82 321 87 2 3 -24 109 -32 130
-5 12 -16 17 -34 15 -38 -4 -48 6 -56 57 -6 41 -3 52 26 96 37 58 35 59 152
-12 45 -27 88 -52 96 -57 20 -12 5 -32 -25 -32 -29 0 -30 -9 -8 -95 18 -73 20
-74 99 -50 27 9 104 27 171 40 153 31 177 40 170 63 -3 9 -8 35 -11 57 -12 76
-12 75 -60 68 -39 -5 -50 -1 -97 29 -63 42 -205 126 -268 159 -52 28 -70 43
-70 59 0 13 80 133 92 138 4 2 8 8 8 12 0 9 106 163 146 213 13 16 38 30 60
35 25 5 38 14 37 23 -1 8 -7 42 -14 77 -15 74 -10 73 -169 37z m117 -37 c-3
-8 -6 -5 -6 6 -1 11 2 17 5 13 3 -3 4 -12 1 -19z m-102 2 c-3 -5 -11 -10 -16
-10 -6 0 -7 5 -4 10 3 6 11 10 16 10 6 0 7 -4 4 -10z m82 4 c-3 -3 -12 -4 -19
-1 -8 3 -5 6 6 6 11 1 17 -2 13 -5z m-148 -35 c-22 -13 -31 -11 -17 5 7 8 17
12 22 9 4 -3 2 -9 -5 -14z m-169 -35 c0 -8 -5 -12 -10 -9 -6 4 -17 1 -25 -5
-12 -10 -15 -9 -15 3 0 9 10 18 23 20 12 2 23 5 25 6 1 0 2 -6 2 -15z m370 -4
c0 -5 -4 -10 -9 -10 -6 0 -13 5 -16 10 -3 6 1 10 9 10 9 0 16 -4 16 -10z
m-334 -56 c27 6 28 5 10 -9 -24 -19 -30 -19 -46 -1 -6 8 -19 12 -28 9 -14 -6
-15 -5 -2 9 13 14 16 14 26 0 8 -10 20 -13 40 -8z m-297 -16 c0 -28 -2 -30 -9
-13 -12 28 -12 45 0 45 6 0 10 -15 9 -32z m523 -10 c-7 -7 -12 -8 -12 -2 0 14
12 26 19 19 2 -3 -1 -11 -7 -17z m-585 6 c-3 -3 -12 -4 -19 -1 -8 3 -5 6 6 6
11 1 17 -2 13 -5z m-77 -14 c0 -5 -10 -10 -22 -9 -22 0 -22 1 -3 9 11 5 21 9
23 9 1 1 2 -3 2 -9z m640 0 c0 -5 -4 -10 -9 -10 -6 0 -13 5 -16 10 -3 6 1 10
9 10 9 0 16 -4 16 -10z m-480 -51 c0 -5 -4 -9 -8 -9 -5 0 -9 7 -9 15 0 8 4 12
9 9 4 -3 8 -9 8 -15z m-310 7 c0 -11 -19 -15 -25 -6 -3 5 1 10 9 10 9 0 16 -2
16 -4z m739 -28 c-7 -13 -14 -18 -16 -11 -3 7 2 19 9 27 18 20 22 12 7 -16z
m-132 -14 c-9 -9 -28 6 -21 18 4 6 10 6 17 -1 6 -6 8 -13 4 -17z m-362 7 c3
-5 1 -12 -5 -16 -5 -3 -10 1 -10 9 0 18 6 21 15 7z m466 -48 c-12 -20 -14 -14
-5 12 4 9 9 14 11 11 3 -2 0 -13 -6 -23z m-464 -5 c-3 -8 -6 -5 -6 6 -1 11 2
17 5 13 3 -3 4 -12 1 -19z m-207 8 c0 -3 -4 -8 -10 -11 -5 -3 -10 -1 -10 4 0
6 5 11 10 11 6 0 10 -2 10 -4z m70 -71 c0 -23 -3 -27 -10 -15 -5 8 -10 29 -10
45 0 23 3 27 10 15 5 -8 10 -28 10 -45z m440 46 c0 -5 -7 -12 -16 -15 -14 -5
-15 -4 -4 9 14 17 20 19 20 6z m132 -13 c-7 -7 -12 -8 -12 -2 0 14 12 26 19
19 2 -3 -1 -11 -7 -17z m-402 -30 c0 -5 -4 -8 -10 -8 -5 0 -10 10 -10 23 0 18
2 19 10 7 5 -8 10 -18 10 -22z m375 -7 c-3 -12 -11 -19 -16 -16 -5 4 -3 14 3
25 15 24 22 19 13 -9z m-526 -95 c-9 -8 -10 -7 -5 7 3 10 7 26 7 35 1 9 4 6 6
-7 3 -13 -1 -28 -8 -35z m331 18 c0 -8 -5 -12 -10 -9 -6 4 -8 11 -5 16 9 14
15 11 15 -7z m130 -25 c-7 -11 -14 -19 -16 -16 -7 7 7 37 17 37 6 0 5 -9 -1
-21z m-443 -31 c-3 -7 -5 -2 -5 12 0 14 2 19 5 13 2 -7 2 -19 0 -25z m289 5
c-10 -10 -19 5 -10 18 6 11 8 11 12 0 2 -7 1 -15 -2 -18z m142 -61 c-10 -2
-18 -8 -18 -14 0 -6 -3 -8 -6 -5 -11 10 17 38 30 30 7 -5 5 -9 -6 -11z m78
-44 c-9 -5 -24 -7 -34 -5 -12 3 -11 5 6 6 12 0 22 6 22 12 0 5 5 7 11 3 8 -5
6 -10 -5 -16z m-467 -41 c0 -21 -1 -21 -9 -2 -12 28 -12 37 0 30 6 -3 10 -16
9 -28z m562 3 c5 0 9 -4 9 -9 0 -4 -11 -6 -25 -3 -14 2 -25 9 -25 14 0 6 7 7
16 4 9 -3 20 -6 25 -6z m-554 -52 c-3 -8 -6 -5 -6 6 -1 11 2 17 5 13 3 -3 4
-12 1 -19z m14 -41 c-13 -13 -15 1 -4 30 7 17 8 17 11 -1 2 -10 -1 -23 -7 -29z
m239 33 c0 -5 -7 -7 -15 -4 -8 4 -15 8 -15 10 0 2 7 4 15 4 8 0 15 -4 15 -10z
m185 0 c-3 -5 -12 -10 -18 -10 -7 0 -6 4 3 10 19 12 23 12 15 0z m-232 -30
c-3 -12 -8 -19 -11 -16 -5 6 5 36 12 36 2 0 2 -9 -1 -20z m487 5 c11 -13 10
-14 -4 -9 -9 3 -16 10 -16 15 0 13 6 11 20 -6z m-215 -5 c8 -13 -5 -13 -25 0
-13 8 -13 10 2 10 9 0 20 -4 23 -10z m210 -20 c3 -5 1 -10 -4 -10 -6 0 -11 5
-11 10 0 6 2 10 4 10 3 0 8 -4 11 -10z m42 -16 c-3 -3 -12 -4 -19 -1 -8 3 -5
6 6 6 11 1 17 -2 13 -5z m-157 -24 c0 -5 -4 -10 -9 -10 -6 0 -13 5 -16 10 -3
6 1 10 9 10 9 0 16 -4 16 -10z m217 -16 c-7 -7 -37 7 -37 17 0 6 9 5 21 -1 11
-7 19 -14 16 -16z m70 -6 c-3 -8 -6 -5 -6 6 -1 11 2 17 5 13 3 -3 4 -12 1 -19z
m-660 -20 c-3 -8 -6 -5 -6 6 -1 11 2 17 5 13 3 -3 4 -12 1 -19z m683 -42 c0
-16 -43 -27 -62 -15 -9 6 -4 9 15 9 15 0 27 5 27 10 0 6 5 10 10 10 6 0 10 -6
10 -14z m-656 -28 c3 -16 3 -28 -2 -28 -4 0 -9 14 -10 32 -3 37 2 35 12 -4z
m479 -5 c-7 -2 -19 -2 -25 0 -7 3 -2 5 12 5 14 0 19 -2 13 -5z m-402 -60 c0
-36 3 -43 9 -28 6 13 9 15 9 5 1 -24 -12 -35 -44 -37 -28 -1 -29 -1 -7 9 17 9
22 19 22 52 0 30 -3 37 -10 26 -5 -8 -10 -10 -10 -4 0 6 3 14 7 17 16 16 23 4
24 -40z m252 30 c-7 -2 -19 -2 -25 0 -7 3 -2 5 12 5 14 0 19 -2 13 -5z m-485
-67 c-2 -1 -12 -9 -23 -18 -19 -16 -20 -15 -20 6 0 18 5 21 23 18 13 -3 22 -5
20 -6z m151 -35 c10 -7 7 -9 -12 -8 -14 1 -23 5 -20 10 6 9 15 9 32 -2z m-49
-15 c0 -2 -9 -6 -20 -9 -11 -3 -20 -1 -20 4 0 5 9 9 20 9 11 0 20 -2 20 -4z"/>
<path d="M5705 4178 c-12 -35 -32 -138 -27 -143 3 -3 15 -5 28 -5 30 0 33 -14
18 -80 -8 -30 -25 -107 -39 -170 -50 -232 -85 -382 -91 -392 -3 -5 -18 -6 -33
-3 -26 6 -27 4 -44 -66 -10 -40 -14 -76 -10 -79 6 -6 188 -53 313 -82 17 -4
48 78 49 130 1 26 -3 32 -19 32 -11 0 -23 7 -26 15 -5 13 42 223 78 348 15 49
32 47 46 -5 6 -24 27 -90 46 -148 19 -58 47 -144 62 -192 l26 -88 32 26 c17
15 67 59 111 99 174 157 236 208 245 199 7 -8 -28 -131 -93 -324 -22 -63 -24
-65 -54 -63 -30 3 -32 0 -52 -59 -12 -34 -21 -67 -21 -74 0 -12 52 -33 148
-59 28 -8 67 -21 85 -28 17 -8 48 -17 68 -21 l35 -6 22 72 c23 72 20 87 -15
88 -6 0 -13 5 -15 12 -2 6 23 95 57 197 34 102 79 239 100 304 l39 118 36 -6
36 -6 22 69 c12 37 22 71 22 74 0 4 -46 21 -102 38 -57 17 -119 37 -139 45
-36 14 -37 14 -100 -37 -118 -95 -224 -181 -234 -192 -24 -26 -123 -106 -131
-106 -5 0 -26 51 -46 113 -45 139 -123 358 -137 384 -10 20 -55 34 -204 68
-83 18 -86 18 -92 3z m40 -28 c-3 -5 -1 -19 5 -30 7 -13 7 -20 1 -20 -18 0
-31 36 -19 48 15 15 21 15 13 2z m51 -9 c-4 -5 0 -12 6 -14 7 -3 3 -6 -9 -6
-14 -1 -23 5 -23 14 0 8 7 15 16 15 8 0 13 -4 10 -9z m187 -61 c9 -11 16 -24
16 -28 -4 -17 14 -92 22 -92 5 0 9 -15 9 -32 0 -25 3 -29 10 -18 6 10 8 1 4
-30 -6 -48 -14 -67 -14 -32 0 11 -4 23 -9 27 -6 3 -8 21 -7 40 2 19 1 35 -3
35 -13 0 -41 63 -42 93 0 26 -2 28 -8 12 -7 -17 -8 -17 -13 8 -8 42 7 49 35
17z m-233 -5 c0 -8 -9 -15 -20 -15 -11 0 -20 7 -20 15 0 8 9 15 20 15 11 0 20
-7 20 -15z m27 -144 c-3 -10 -5 -7 -6 7 0 12 -5 22 -11 22 -5 0 -7 7 -3 17 5
13 8 12 15 -7 5 -13 7 -31 5 -39z m874 -11 c5 0 9 -7 9 -15 0 -8 -7 -15 -15
-15 -8 0 -15 5 -15 10 0 6 -4 10 -10 10 -5 0 -10 -7 -10 -15 0 -9 9 -15 23
-14 26 1 69 17 48 18 -8 1 -12 4 -8 7 3 3 15 3 28 -1 12 -4 17 -10 11 -14 -6
-3 6 -7 26 -8 20 0 51 -8 67 -17 17 -9 36 -16 43 -16 6 0 12 -1 12 -2 -2 -25
-30 -93 -39 -92 -37 3 -39 5 -33 26 l5 21 -21 -21 c-12 -12 -22 -28 -22 -35 0
-7 -9 -30 -20 -52 -11 -22 -20 -47 -20 -57 0 -10 -4 -18 -10 -18 -14 0 -12 22
6 66 22 53 25 84 7 77 -8 -3 -11 -13 -8 -23 3 -9 -1 -23 -10 -30 -10 -8 -15
-9 -15 -1 0 6 -6 11 -13 11 -9 0 -11 -12 -9 -40 4 -37 2 -40 -21 -40 -14 0
-27 7 -31 15 -3 9 -12 12 -23 8 -15 -6 -16 -4 -6 9 7 8 10 18 7 21 -4 3 -7 29
-7 57 -1 48 -10 64 -20 38 -4 -10 -6 -10 -6 -1 -1 6 9 19 21 27 12 9 19 19 15
22 -4 4 -17 -2 -30 -12 -12 -11 -32 -19 -45 -18 -26 2 -38 11 -28 21 4 4 12 1
17 -7 9 -13 10 -12 6 2 -4 12 5 23 29 37 19 11 34 25 34 31 0 5 6 10 14 10 8
0 17 7 20 16 4 10 12 14 22 10 9 -3 20 -6 25 -6z m-849 -63 c3 -13 1 -32 -3
-43 -5 -13 -8 -7 -8 24 -1 46 4 55 11 19z m105 3 c10 -15 10 -21 -1 -27 -7 -4
-18 -17 -24 -28 -11 -20 -11 -20 -12 2 0 12 5 25 10 28 6 4 8 15 5 26 -8 25 7
25 22 -1z m159 -30 c-4 -22 -2 -29 6 -24 6 4 8 3 5 -3 -3 -5 7 -38 24 -72 17
-34 28 -69 25 -77 -3 -8 -2 -14 2 -14 4 0 13 -18 18 -39 10 -38 10 -40 -14
-46 -13 -3 -27 -4 -30 0 -3 3 2 5 11 5 10 0 17 8 17 19 0 26 -61 192 -69 187
-3 -3 -12 7 -18 20 -9 20 -9 26 3 31 7 3 11 9 8 14 -3 5 -2 14 1 19 12 19 17
10 11 -20z m-62 -1 c-2 -4 1 -9 7 -11 6 -2 3 -11 -8 -20 -18 -16 -19 -16 -21
11 -1 19 3 28 13 28 8 0 12 -4 9 -8z m-267 -21 c-3 -8 -6 -5 -6 6 -1 11 2 17
5 13 3 -3 4 -12 1 -19z m223 -29 c0 -5 -4 -9 -10 -9 -5 0 -10 7 -10 16 0 8 5
12 10 9 6 -3 10 -10 10 -16z m520 -10 c0 -5 -10 -9 -21 -9 -18 0 -19 2 -9 15
12 15 30 12 30 -6z m-590 -5 c0 -8 -4 -12 -10 -9 -5 3 -10 10 -10 16 0 5 5 9
10 9 6 0 10 -7 10 -16z m530 -11 c0 -5 -18 -21 -40 -36 -26 -18 -38 -23 -34
-13 3 9 11 16 18 16 6 0 18 9 26 20 14 20 30 27 30 13z m-410 -38 c0 -10 -13
-35 -19 -35 -3 0 -11 8 -18 19 -10 16 -9 19 13 19 13 0 24 -2 24 -3z m13 -64
c-4 -33 -1 -58 9 -78 12 -24 12 -30 1 -30 -7 0 -13 11 -13 24 0 13 -5 23 -11
23 -7 0 -9 9 -5 24 4 15 1 26 -7 30 -8 3 -7 8 6 16 9 6 17 18 17 25 0 8 2 15
5 15 2 0 1 -22 -2 -49z m323 0 c-3 -5 1 -12 10 -15 28 -11 6 -20 -40 -17 -37
2 -45 -1 -51 -18 -6 -21 -25 -29 -25 -12 0 20 52 66 71 63 10 -2 19 2 19 7 0
6 -5 11 -11 11 -5 0 -7 5 -4 10 4 6 12 4 21 -5 9 -8 13 -19 10 -24z m331 7
c-3 -7 -5 -2 -5 12 0 14 2 19 5 13 2 -7 2 -19 0 -25z m-980 -51 c-13 -40 -27
-49 -27 -17 0 11 4 20 9 20 5 0 11 10 14 22 4 12 8 20 11 17 2 -2 -1 -21 -7
-42z m153 13 c0 -11 -2 -20 -4 -20 -2 0 -6 9 -9 20 -3 11 -1 20 4 20 5 0 9 -9
9 -20z m560 -24 c0 -3 -11 -17 -24 -31 -16 -17 -27 -22 -31 -15 -8 13 22 50
42 50 7 0 13 -2 13 -4z m278 -34 c-12 -31 -28 -43 -28 -22 0 13 31 62 36 57 2
-2 -2 -18 -8 -35z m-464 19 c3 -5 -3 -11 -15 -14 -16 -4 -18 -3 -8 9 13 16 16
17 23 5z m287 -38 c-9 -15 -10 -14 -7 7 8 44 8 45 13 28 2 -10 0 -25 -6 -35z
m-704 -20 c-3 -10 -5 -4 -5 12 0 17 2 24 5 18 2 -7 2 -21 0 -30z m515 -13
c-49 -44 -73 -40 -29 6 12 13 31 24 42 24 16 0 14 -5 -13 -30z m188 -10 c0 -5
-2 -10 -4 -10 -3 0 -8 5 -11 10 -3 6 -1 10 4 10 6 0 11 -4 11 -10z m-842 -46
c-3 -14 -5 -12 -10 9 -3 19 -2 25 4 19 6 -6 8 -18 6 -28z m402 -14 c0 -13 -1
-13 -10 0 -5 8 -10 22 -10 30 0 13 1 13 10 0 5 -8 10 -22 10 -30z m574 13 c-8
-34 -10 -37 -23 -29 -7 5 -7 15 1 31 15 34 30 32 22 -2z m-429 7 c3 -5 -1 -10
-9 -10 -9 0 -16 5 -16 10 0 6 4 10 9 10 6 0 13 -4 16 -10z m-418 -32 c-3 -7
-5 -2 -5 12 0 14 2 19 5 13 2 -7 2 -19 0 -25z m310 0 c-3 -8 -6 -5 -6 6 -1 11
2 17 5 13 3 -3 4 -12 1 -19z m392 5 c0 -11 -3 -13 -6 -5 -2 6 -9 10 -14 6 -5
-3 -9 0 -9 5 0 6 7 11 15 11 8 0 15 -8 14 -17z m125 -48 c9 -25 -11 -25 -22 0
-9 19 -8 23 3 19 7 -3 16 -12 19 -19z m-533 -18 c-8 -8 -11 -7 -11 4 0 20 13
34 18 19 3 -7 -1 -17 -7 -23z m81 1 c-12 -12 -25 -18 -29 -14 -4 5 -2 11 5 13
7 3 18 11 25 18 7 7 14 11 16 9 3 -3 -5 -14 -17 -26z m-55 0 c-3 -8 -6 -5 -6
6 -1 11 2 17 5 13 3 -3 4 -12 1 -19z m-542 -18 c3 -5 -1 -10 -9 -10 -9 0 -16
5 -16 10 0 6 4 10 9 10 6 0 13 -4 16 -10z m847 -110 c-4 -42 -7 -49 -12 -30
-5 21 8 96 16 87 1 -1 -1 -27 -4 -57z m-585 18 c-3 -7 -5 -2 -5 12 0 14 2 19
5 13 2 -7 2 -19 0 -25z m-237 -9 c0 -6 -4 -7 -10 -4 -5 3 -10 11 -10 16 0 6 5
7 10 4 6 -3 10 -11 10 -16z m220 -33 c0 -26 -6 -18 -14 19 -5 22 -4 26 4 15 5
-8 10 -24 10 -34z m-100 14 c-8 -5 -24 -10 -35 -10 -17 0 -17 2 -5 10 8 5 24
10 35 10 17 0 17 -2 5 -10z m850 0 c0 -5 -2 -10 -4 -10 -3 0 -8 5 -11 10 -3 6
-1 10 4 10 6 0 11 -4 11 -10z m-253 -112 c-3 -8 -6 -5 -6 6 -1 11 2 17 5 13 3
-3 4 -12 1 -19z m16 -62 c4 -10 0 -12 -15 -8 -15 4 -17 7 -6 13 17 11 15 11
21 -5z m37 10 c0 -3 -4 -8 -10 -11 -5 -3 -10 -1 -10 4 0 6 5 11 10 11 6 0 10
-2 10 -4z m194 -38 c-8 -27 -12 -33 -19 -27 -7 8 7 49 17 49 5 0 6 -10 2 -22z
m-79 -8 c3 -5 2 -10 -4 -10 -5 0 -13 5 -16 10 -3 6 -2 10 4 10 5 0 13 -4 16
-10z m85 -34 c0 -2 -7 -6 -15 -10 -8 -3 -15 -1 -15 4 0 6 7 10 15 10 8 0 15
-2 15 -4z"/>
<path d="M6752 3851 c4 -13 18 -16 19 -4 0 4 -5 9 -11 12 -7 2 -11 -2 -8 -8z"/>
<path d="M217 3955 c-26 -24 -47 -51 -47 -60 0 -9 12 -56 27 -106 l28 -89 35
2 c34 3 35 3 56 -62 12 -36 29 -90 38 -120 9 -30 34 -116 56 -190 46 -154 48
-175 20 -190 -26 -14 -24 -36 9 -140 l27 -85 36 3 c20 2 39 -2 43 -8 5 -8 10
-8 20 0 9 8 15 8 20 0 3 -5 -1 -10 -9 -10 -28 0 -17 -20 42 -79 53 -54 66 -61
175 -99 64 -23 117 -38 117 -34 0 4 4 2 8 -4 9 -14 196 -74 230 -74 21 0 24
-2 12 -10 -12 -8 -12 -10 5 -10 11 0 44 -9 74 -21 30 -11 60 -18 67 -15 8 3
14 1 14 -3 0 -8 127 -53 145 -52 2 0 21 -7 41 -15 20 -8 39 -13 42 -10 3 3 0
6 -6 6 -7 0 -12 5 -12 10 0 18 18 11 25 -9 6 -19 60 -45 75 -36 3 2 20 0 36
-5 21 -6 23 -9 9 -9 -11 -1 14 -13 55 -26 41 -14 82 -29 91 -34 9 -6 27 -7 40
-4 19 4 21 3 9 -6 -13 -9 -12 -11 5 -11 17 0 182 -48 240 -70 80 -31 114 -40
129 -34 11 4 16 2 14 -6 -2 -7 4 -14 13 -15 9 -2 32 -9 50 -17 53 -23 161 -59
194 -65 17 -3 35 -10 42 -15 6 -5 23 -11 37 -14 25 -4 181 -54 218 -69 10 -4
16 -2 15 7 -1 37 4 47 19 41 15 -6 15 -8 -2 -20 -16 -12 -17 -15 -4 -23 8 -5
11 -10 5 -10 -5 0 23 -12 63 -25 40 -14 78 -23 83 -20 5 4 9 2 9 -2 0 -9 59
-37 72 -35 4 1 23 -5 42 -13 21 -9 36 -11 36 -5 0 5 5 10 10 10 6 0 10 -6 10
-14 0 -8 29 -22 73 -35 39 -12 85 -27 101 -32 16 -5 87 -9 158 -9 103 0 145 4
203 21 53 16 72 25 68 35 -3 8 0 14 6 14 6 0 11 -5 11 -11 0 -7 9 -9 23 -4 24
7 75 21 122 35 29 8 29 8 5 10 -24 3 -15 5 99 24 18 3 39 10 46 16 7 6 19 8
28 4 8 -3 18 -1 22 5 3 6 17 11 31 11 17 0 23 4 18 12 -4 6 -3 9 2 6 14 -9
312 73 323 89 3 4 21 9 39 10 18 1 67 14 109 28 41 14 84 25 95 25 10 0 17 4
14 9 -6 9 49 25 73 22 8 -2 24 2 35 8 12 5 40 15 64 21 23 6 42 15 42 20 0 5
7 7 15 4 8 -3 54 6 102 21 68 22 83 30 68 35 -13 5 -3 7 25 5 29 -2 58 3 82
15 20 10 39 15 42 12 4 -3 16 -1 29 5 12 6 49 18 82 28 33 9 70 21 83 26 13 5
33 9 45 9 12 0 31 7 41 15 11 8 31 16 45 16 17 1 20 3 9 6 -10 2 -18 9 -18 15
0 7 -14 8 -37 5 -40 -7 -34 7 9 17 15 3 28 2 30 -5 5 -15 95 -24 110 -12 7 6
31 14 52 17 21 4 45 14 53 22 8 8 32 14 54 14 22 0 53 7 69 15 16 8 37 16 47
18 10 2 45 11 78 21 33 10 92 27 130 39 82 24 125 46 125 65 0 7 5 10 11 7 15
-10 59 34 60 59 0 19 1 19 8 3 6 -17 8 -16 19 7 6 15 23 28 39 32 15 4 53 29
83 55 50 44 58 56 84 136 16 48 31 94 33 100 3 7 -7 17 -21 23 -14 5 -26 17
-26 27 0 19 126 405 142 436 5 10 26 33 46 52 40 37 40 42 -4 51 -28 5 -30 3
-51 -53 -28 -77 -163 -492 -163 -504 0 -5 6 -9 13 -9 7 0 20 -6 29 -12 15 -12
14 -21 -15 -105 -18 -50 -35 -95 -39 -98 -4 -4 -26 0 -50 8 -24 9 -104 35
-178 58 -74 23 -140 47 -146 53 -9 8 -6 30 11 86 13 41 27 84 31 94 7 19 6 19
-22 -2 -16 -12 -36 -28 -46 -35 -9 -7 -31 -60 -48 -117 -18 -58 -35 -111 -37
-117 -3 -7 2 -13 10 -13 24 0 177 -50 177 -58 0 -3 -14 -18 -31 -33 -31 -27
-57 -35 -349 -120 -231 -66 -396 -114 -650 -189 -135 -40 -258 -76 -275 -80
-29 -8 -80 -23 -390 -115 -245 -72 -462 -135 -595 -172 -69 -18 -134 -38 -145
-43 -11 -4 -29 -11 -40 -13 -11 -3 -69 -19 -130 -37 -112 -32 -218 -41 -310
-25 -37 6 -858 270 -935 300 -19 8 -120 41 -225 75 -706 227 -1466 484 -1498
506 -52 35 -47 50 21 68 31 9 73 21 93 26 20 5 44 19 53 29 14 15 22 17 35 9
13 -8 60 0 191 30 96 23 201 46 234 51 66 12 106 34 155 85 37 38 37 34 5 179
-11 47 -20 67 -31 67 -11 0 -14 -6 -9 -22 20 -78 38 -190 30 -197 -5 -5 -90
-25 -189 -46 -98 -20 -199 -43 -224 -51 -28 -8 -49 -10 -56 -4 -6 5 -20 53
-30 105 -17 83 -17 97 -5 105 8 5 12 11 10 13 -8 8 -136 77 -143 77 -3 0 -15
-16 -27 -35 -16 -26 -20 -43 -15 -66 7 -29 9 -30 40 -25 33 7 33 7 50 -51 9
-32 21 -75 27 -95 13 -44 5 -68 -21 -68 -12 0 -49 -9 -83 -20 -116 -36 -272
-79 -276 -75 -9 9 -58 192 -54 203 2 6 9 12 15 12 35 1 36 16 6 115 -16 55
-38 132 -49 170 -48 173 -89 300 -97 299 -4 -1 -18 -5 -30 -8 -28 -9 -36 7
-66 118 l-22 84 -48 -43z m407 -1090 c9 -14 13 -25 9 -25 -12 1 -46 50 -35 50
6 0 17 -11 26 -25z m46 -55 c0 -5 -2 -10 -4 -10 -3 0 -8 5 -11 10 -3 6 -1 10
4 10 6 0 11 -4 11 -10z m5740 -10 c0 -5 -4 -10 -10 -10 -5 0 -10 5 -10 10 0 6
5 10 10 10 6 0 10 -4 10 -10z m-40 -40 c-8 -5 -19 -10 -25 -10 -5 0 -3 5 5 10
8 5 20 10 25 10 6 0 3 -5 -5 -10z m-5483 -35 c0 -8 -4 -15 -8 -15 -4 0 -9 7
-13 15 -3 9 0 15 8 15 7 0 13 -7 13 -15z m88 -15 c19 -8 19 -9 -2 -9 -12 -1
-25 4 -28 9 -7 12 2 12 30 0z m5250 -30 c-11 -5 -29 -8 -40 -8 -16 0 -15 2 5
8 34 11 60 11 35 0z m-70 -20 c-3 -5 -11 -10 -16 -10 -6 0 -7 5 -4 10 3 6 11
10 16 10 6 0 7 -4 4 -10z m-4956 -21 c23 -7 41 -15 41 -20 0 -12 -84 11 -100
28 -13 14 -13 15 1 10 10 -3 35 -11 58 -18z m4919 2 c9 -5 4 -8 -16 -7 -17 1
-28 4 -25 9 6 9 25 9 41 -2z m102 5 c0 -2 -9 -6 -20 -9 -11 -3 -18 -1 -14 4 5
9 34 13 34 5z m-4923 -42 c-3 -3 -12 -4 -19 -1 -8 3 -5 6 6 6 11 1 17 -2 13
-5z m4693 2 c0 -11 -19 -15 -25 -6 -3 5 1 10 9 10 9 0 16 -2 16 -4z m-4625
-28 c7 -7 2 -8 -15 -3 -14 4 -29 12 -35 17 -7 7 -2 8 15 3 14 -4 30 -12 35
-17z m4495 -8 c-8 -5 -19 -10 -25 -10 -5 0 -3 5 5 10 8 5 20 10 25 10 6 0 3
-5 -5 -10z m-70 -20 c0 -5 -5 -10 -11 -10 -5 0 -7 5 -4 10 3 6 8 10 11 10 2 0
4 -4 4 -10z m-44 -18 c-3 -5 -20 -9 -38 -9 l-33 -1 35 13 c37 13 46 12 36 -3z
m-4216 -12 c0 -13 -11 -13 -30 0 -12 8 -11 10 8 10 12 0 22 -4 22 -10z m70
-20 c0 -5 -2 -10 -4 -10 -3 0 -8 5 -11 10 -3 6 -1 10 4 10 6 0 11 -4 11 -10z
m4137 4 c-3 -3 -12 -4 -19 -1 -8 3 -5 6 6 6 11 1 17 -2 13 -5z m-4007 -44 c0
-5 -4 -10 -10 -10 -5 0 -10 5 -10 10 0 6 5 10 10 10 6 0 10 -4 10 -10z m3745
1 c-6 -5 -21 -12 -35 -15 l-25 -7 25 15 c28 17 50 21 35 7z m-3665 -27 c0 -2
-14 -4 -31 -4 -16 0 -28 4 -25 9 5 8 56 3 56 -5z m3557 0 c-3 -3 -12 -4 -19
-1 -8 3 -5 6 6 6 11 1 17 -2 13 -5z m-3482 -24 c8 -13 -5 -13 -25 0 -13 8 -13
10 2 10 9 0 20 -4 23 -10z m3445 6 c0 -3 -4 -8 -10 -11 -5 -3 -10 -1 -10 4 0
6 5 11 10 11 6 0 10 -2 10 -4z m-3364 -37 c3 -5 -1 -9 -10 -9 -21 0 -46 11
-46 20 0 10 49 0 56 -11z m3264 11 c0 -5 -7 -10 -16 -10 -8 0 -12 5 -9 10 3 6
10 10 16 10 5 0 9 -4 9 -10z m-3200 -35 c-7 -9 -15 -13 -19 -10 -3 3 1 10 9
15 21 14 24 12 10 -5z m3090 5 c-8 -5 -23 -10 -32 -10 -10 0 -18 -4 -18 -8 0
-12 -89 -31 -96 -21 -3 5 7 9 23 9 15 1 46 9 68 20 43 21 83 28 55 10z m-3083
-42 c-3 -8 -6 -5 -6 6 -1 11 2 17 5 13 3 -3 4 -12 1 -19z m108 1 c5 -6 2 -9
-9 -9 -9 0 -25 7 -34 16 -15 15 -14 16 8 9 14 -4 29 -11 35 -16z m65 -19 c0
-5 -4 -10 -10 -10 -5 0 -10 5 -10 10 0 6 5 10 10 10 6 0 10 -4 10 -10z m25
-20 c-3 -5 -12 -10 -18 -10 -7 0 -6 4 3 10 19 12 23 12 15 0z m2632 4 c-3 -3
-12 -4 -19 -1 -8 3 -5 6 6 6 11 1 17 -2 13 -5z m-40 -26 c-3 -8 -6 -5 -6 6 -1
11 2 17 5 13 3 -3 4 -12 1 -19z m55 0 c-7 -7 -12 -8 -12 -2 0 14 12 26 19 19
2 -3 -1 -11 -7 -17z m-92 -8 c-8 -5 -17 -7 -19 -4 -3 3 1 9 9 14 8 5 17 7 19
4 3 -3 -1 -9 -9 -14z m-2420 -20 c-32 -9 -43 -3 -27 14 9 11 17 11 32 3 19
-10 19 -11 -5 -17z m2380 10 c0 -5 -7 -10 -15 -10 -8 0 -15 5 -15 10 0 6 7 10
15 10 8 0 15 -4 15 -10z m-90 -20 c-8 -5 -24 -9 -35 -9 l-20 0 20 9 c11 5 27
9 35 9 13 1 13 0 0 -9z m-2150 -20 c0 -5 -7 -10 -15 -10 -8 0 -15 5 -15 10 0
6 7 10 15 10 8 0 15 -4 15 -10z m2101 -10 c21 -17 22 -19 6 -20 -10 0 -15 5
-12 10 3 6 -3 10 -14 10 -12 0 -21 5 -21 10 0 16 16 12 41 -10z m-2064 4 c-3
-3 -12 -4 -19 -1 -8 3 -5 6 6 6 11 1 17 -2 13 -5z m63 -24 c0 -5 -9 -10 -19
-10 -11 0 -23 5 -26 10 -4 6 5 10 19 10 14 0 26 -4 26 -10z m1845 -7 c-11 -3
-23 -10 -26 -15 -4 -6 -13 -7 -20 -3 -15 10 13 24 46 23 l20 0 -20 -5z m-1765
-23 c0 -5 -4 -10 -10 -10 -5 0 -10 5 -10 10 0 6 5 10 10 10 6 0 10 -4 10 -10z
m1800 -4 c0 -2 -7 -7 -16 -10 -8 -3 -12 -2 -9 4 6 10 25 14 25 6z m-1720 -10
c0 -3 -4 -8 -10 -11 -5 -3 -10 -1 -10 4 0 6 5 11 10 11 6 0 10 -2 10 -4z
m1560 -6 c-36 -11 -52 -11 -45 0 3 6 21 10 38 9 31 -1 31 -1 7 -9z m-1650 -10
c0 -5 -2 -10 -4 -10 -3 0 -8 5 -11 10 -3 6 -1 10 4 10 6 0 11 -4 11 -10z
m1763 3 c-7 -2 -19 -2 -25 0 -7 3 -2 5 12 5 14 0 19 -2 13 -5z m-85 -17 c-7
-8 -15 -12 -17 -11 -5 6 10 25 20 25 5 0 4 -6 -3 -14z m-209 -30 c-12 -10 -59
-15 -59 -6 0 5 14 10 32 10 17 0 29 -2 27 -4z m-1172 -22 c-3 -3 -12 -4 -19
-1 -8 3 -5 6 6 6 11 1 17 -2 13 -5z m28 -4 c3 -5 1 -10 -4 -10 -6 0 -11 5 -11
10 0 6 2 10 4 10 3 0 8 -4 11 -10z m1060 0 c7 -12 -12 -12 -40 0 -18 8 -17 9
7 9 15 1 30 -3 33 -9z m-985 -30 c12 -8 9 -10 -12 -10 -15 0 -30 5 -33 10 -8
13 25 13 45 0z m870 0 c0 -5 -4 -10 -9 -10 -6 0 -13 5 -16 10 -3 6 1 10 9 10
9 0 16 -4 16 -10z m-80 -20 c0 -5 -4 -10 -10 -10 -5 0 -10 5 -10 10 0 6 5 10
10 10 6 0 10 -4 10 -10z m-700 -10 c0 -5 -4 -10 -10 -10 -5 0 -10 5 -10 10 0
6 5 10 10 10 6 0 10 -4 10 -10z m655 0 c-3 -5 -12 -10 -18 -10 -7 0 -6 4 3 10
19 12 23 12 15 0z m-28 -16 c14 -14 13 -15 -18 -11 -19 3 -36 6 -39 7 -4 1 27
17 38 19 2 1 11 -6 19 -15z m-530 -7 c3 -4 -8 -7 -25 -7 -17 0 -33 4 -36 8 -6
10 51 8 61 -1z m424 -17 c-24 -21 -108 -29 -96 -10 3 6 19 10 35 10 16 0 32 5
35 10 3 6 16 10 28 10 l22 -1 -24 -19z m-373 -7 c-10 -2 -26 -2 -35 0 -10 3
-2 5 17 5 19 0 27 -2 18 -5z m-83 -13 c3 -6 -1 -7 -9 -4 -18 7 -21 14 -7 14 6
0 13 -4 16 -10z m198 -7 c-7 -2 -21 -2 -30 0 -10 3 -4 5 12 5 17 0 24 -2 18
-5z m-58 -13 c-3 -5 -10 -10 -16 -10 -5 0 -9 5 -9 10 0 6 7 10 16 10 8 0 12
-4 9 -10z m122 -26 c-3 -3 -12 -4 -19 -1 -8 3 -5 6 6 6 11 1 17 -2 13 -5z"/>
<path d="M6357 3452 c-37 -31 -63 -58 -57 -60 15 -5 12 -36 -11 -97 -12 -31
-19 -58 -17 -61 3 -2 18 -7 35 -10 l31 -6 45 143 c25 79 45 145 43 146 -1 2
-32 -23 -69 -55z"/>
<path d="M2755 3113 c-48 -6 -135 -34 -135 -44 0 -5 -8 -9 -17 -9 -25 0 -83
-59 -75 -78 4 -11 1 -14 -10 -10 -10 4 -19 -2 -27 -18 -15 -34 -14 -42 9 -54
16 -9 20 -8 20 5 0 9 -4 13 -10 10 -5 -3 -10 1 -10 10 0 9 3 14 8 12 4 -2 20
11 35 29 18 21 24 34 15 34 -7 0 -5 6 7 12 11 7 21 10 21 7 1 -2 10 3 20 12
47 41 100 62 174 67 54 4 68 8 50 13 -27 8 -31 8 -75 2z"/>
<path d="M2878 3082 c12 -11 22 -25 22 -32 0 -6 5 -8 10 -5 7 4 8 -3 4 -20 -3
-14 -2 -25 2 -24 21 4 26 -2 14 -16 -7 -8 -16 -13 -20 -10 -4 2 -13 -7 -20
-20 -7 -14 -18 -25 -24 -26 -6 0 -2 -5 9 -10 17 -8 16 -9 -7 -6 -19 3 -28 0
-28 -9 0 -18 16 -18 49 2 30 18 61 66 61 96 0 26 -29 75 -49 82 -9 3 -23 9
-31 12 -8 3 -5 -4 8 -14z"/>
<path d="M2724 3004 c3 -8 2 -13 -3 -10 -5 3 -11 -1 -15 -9 -3 -8 -1 -15 4
-15 18 0 10 -39 -9 -45 -11 -3 -25 -13 -32 -22 -12 -14 -10 -15 19 -9 25 6 32
4 32 -7 0 -8 11 -18 24 -21 14 -3 32 -14 41 -23 14 -13 21 -14 36 -4 11 6 24
9 28 6 5 -3 7 4 4 15 -3 10 -14 22 -25 26 -16 5 -18 8 -7 15 9 6 10 9 2 9 -6
0 -14 -4 -17 -9 -12 -18 -53 -18 -65 1 -12 20 -4 71 10 62 5 -3 9 2 9 10 0 9
5 16 10 16 6 0 10 5 10 11 0 6 -9 9 -20 6 -11 -3 -20 -1 -20 4 0 5 -5 9 -11 9
-6 0 -8 -7 -5 -16z m99 -141 c-7 -2 -21 -2 -30 0 -10 3 -4 5 12 5 17 0 24 -2
18 -5z"/>
<path d="M2691 2944 c0 -11 3 -14 6 -6 3 7 2 16 -1 19 -3 4 -6 -2 -5 -13z"/>
<path d="M3041 2900 c-17 -33 -27 -60 -22 -60 4 0 13 12 20 26 6 15 14 24 18
21 6 -7 -37 -117 -47 -117 -3 0 -6 -10 -7 -21 -1 -12 -7 -27 -14 -33 -9 -8
-10 -6 -5 9 4 11 9 29 12 39 2 11 8 24 14 30 5 5 10 17 10 25 0 26 -30 -11
-40 -50 -5 -19 -12 -45 -16 -58 -5 -17 -4 -22 4 -17 7 4 12 2 12 -4 0 -6 5 -8
12 -4 7 4 8 3 4 -4 -4 -6 -13 -9 -21 -5 -8 3 -15 0 -15 -6 0 -17 46 -35 67
-26 17 7 17 8 -2 15 -11 5 -14 9 -7 9 9 1 10 6 4 17 -12 22 6 79 56 179 22 44
38 82 35 85 -3 3 -8 -1 -10 -7 -3 -7 -9 -13 -15 -13 -6 0 -8 7 -4 15 3 8 1 15
-4 15 -5 0 -22 -27 -39 -60z"/>
<path d="M3239 2927 c-12 -24 -13 -38 -6 -55 6 -12 13 -22 16 -22 10 0 41 60
41 80 0 14 -20 32 -33 30 -1 0 -9 -15 -18 -33z m25 -22 c-9 -14 -19 -24 -21
-21 -7 7 16 46 28 46 5 0 2 -11 -7 -25z"/>
<path d="M3367 2936 c-7 -18 4 -21 20 -5 14 14 73 -46 73 -76 0 -12 7 -25 15
-29 8 -3 15 -1 15 4 0 6 -5 10 -11 10 -6 0 -3 7 5 16 38 37 3 81 -72 91 -30 4
-40 1 -45 -11z m113 -52 c0 -8 -4 -12 -10 -9 -5 3 -10 10 -10 16 0 5 5 9 10 9
6 0 10 -7 10 -16z"/>
<path d="M3769 2929 c-18 -7 -26 -16 -23 -27 2 -10 -6 -25 -21 -35 -14 -10
-25 -13 -25 -8 0 6 8 14 17 20 10 5 14 13 9 18 -12 11 -95 -86 -131 -154 -21
-40 -26 -57 -17 -60 6 -3 12 -11 12 -18 0 -17 31 -35 60 -35 25 0 95 28 88 35
-3 3 -20 -1 -38 -9 -40 -16 -72 -10 -66 13 17 62 17 66 4 50 -11 -14 -15 -14
-26 -3 -12 13 -8 18 12 15 5 -1 6 6 2 15 -5 13 -2 15 19 10 17 -4 25 -2 25 7
0 17 97 121 128 136 15 8 28 9 41 2 10 -6 21 -7 25 -4 9 9 7 3 -10 -42 -8 -22
-17 -48 -21 -57 -3 -10 -9 -18 -14 -18 -5 0 -9 -7 -9 -15 0 -8 5 -15 10 -15 6
0 10 7 10 15 0 8 7 15 15 15 8 0 15 -4 15 -10 0 -24 19 -7 26 23 13 55 10 82
-7 56 -5 -8 -6 2 -2 25 5 31 2 42 -12 52 -21 16 -58 17 -96 3z m60 -3 c-2 -2
-17 -6 -34 -10 -22 -5 -26 -4 -15 4 14 9 59 15 49 6z m-167 -147 l-9 -23 -13
23 c-6 13 -7 21 -2 17 6 -3 14 -1 17 5 12 18 16 3 7 -22z m-45 -104 c0 -8 -4
-12 -9 -9 -4 3 -8 9 -8 15 0 5 4 9 8 9 5 0 9 -7 9 -15z"/>
<path d="M4118 2906 c-24 -18 -42 -39 -40 -47 2 -7 -2 -23 -9 -36 -7 -13 -9
-26 -6 -29 11 -11 47 40 43 58 -2 10 0 21 5 24 5 3 9 0 9 -6 0 -6 12 -2 26 9
15 12 33 21 40 21 8 0 14 4 14 9 0 4 -12 7 -27 4 -24 -3 -25 -2 -8 6 32 15 45
12 45 -9 0 -26 16 -26 23 -1 11 43 -58 41 -115 -3z"/>
<path d="M4324 2928 c-3 -5 4 -19 14 -33 14 -17 22 -21 25 -13 8 21 42 -5 45
-36 3 -22 6 -25 23 -16 16 9 19 7 19 -9 0 -24 -16 -36 -26 -19 -5 7 -11 3 -17
-13 -6 -13 -11 -27 -11 -31 -1 -4 -7 -13 -13 -19 -7 -7 -13 -26 -13 -41 0 -16
5 -28 13 -28 26 0 41 20 41 53 0 20 4 33 11 31 15 -6 35 68 27 97 -4 13 -15
35 -24 48 -14 20 -20 22 -32 12 -9 -7 -17 -8 -20 -2 -3 5 0 11 6 14 7 2 -4 6
-25 9 -21 2 -40 0 -43 -4z m116 -59 c0 -6 -4 -7 -10 -4 -5 3 -10 11 -10 16 0
6 5 7 10 4 6 -3 10 -11 10 -16z m-35 -168 c-7 -23 -25 -29 -25 -8 0 14 21 39
28 33 2 -3 1 -14 -3 -25z"/>
<path d="M3390 2898 c0 -15 -2 -35 -5 -45 -3 -10 2 -3 10 16 12 24 13 37 6 44
-8 8 -11 3 -11 -15z"/>
<path d="M4232 2868 c-17 -53 -8 -61 13 -12 8 21 12 41 8 45 -5 5 -14 -10 -21
-33z"/>
<path d="M2631 2830 c-13 -27 -28 -50 -33 -50 -5 0 -6 -10 -3 -21 4 -12 3 -19
-2 -16 -5 3 -17 -7 -27 -24 -11 -18 -25 -29 -39 -29 -16 0 -18 -3 -8 -9 9 -6
10 -11 2 -15 -14 -9 -14 -26 0 -26 6 0 13 9 16 19 5 21 46 37 51 20 2 -5 16 9
31 33 35 55 45 79 42 101 -1 9 4 17 12 17 17 0 30 27 21 41 -4 6 -11 6 -19 -1
-9 -8 -14 -8 -17 0 -2 6 -14 -12 -27 -40z m-2 -78 c-6 -18 -15 -32 -20 -32 -5
0 -5 7 0 18 5 9 12 26 16 36 3 10 8 17 10 14 3 -3 0 -19 -6 -36z"/>
<path d="M3196 2844 c-10 -21 -21 -42 -23 -46 -2 -5 0 -8 6 -8 6 0 13 11 17
25 3 14 13 25 21 25 10 0 12 -6 8 -20 -3 -11 -2 -20 3 -20 5 0 12 9 15 20 3
11 2 20 -2 20 -5 0 -12 10 -18 22 -9 20 -10 19 -27 -18z"/>
<path d="M3500 2842 c0 -20 -29 -64 -30 -44 0 26 -16 10 -38 -40 -12 -28 -21
-56 -18 -62 2 -6 5 -3 5 6 1 21 21 35 21 14 0 -8 -7 -21 -15 -30 -25 -25 -18
-38 15 -31 18 4 30 3 30 -4 0 -6 -7 -8 -15 -5 -8 4 -15 1 -15 -5 0 -6 6 -11
14 -11 21 0 96 42 96 53 0 6 -8 3 -18 -6 -23 -21 -51 -22 -58 -2 -4 8 -10 12
-15 9 -5 -3 -9 4 -9 16 0 11 6 23 14 26 8 3 17 12 20 20 4 10 2 12 -5 8 -7 -4
-2 6 9 22 26 35 39 84 23 84 -6 0 -11 -8 -11 -18z"/>
<path d="M4044 2842 c-16 -11 -57 -82 -47 -82 4 0 14 14 21 30 8 17 20 30 28
30 8 0 14 7 14 15 0 17 -1 17 -16 7z"/>
<path d="M3356 2803 c-6 -14 -5 -15 5 -6 7 7 10 15 7 18 -3 3 -9 -2 -12 -12z"/>
<path d="M4307 2783 l-18 -38 20 25 c18 22 28 50 18 50 -2 0 -11 -17 -20 -37z"/>
<path d="M2901 2764 c0 -11 3 -14 6 -6 3 7 2 16 -1 19 -3 4 -6 -2 -5 -13z"/>
<path d="M3337 2773 c-4 -3 -7 -11 -7 -17 0 -6 5 -5 12 2 6 6 9 14 7 17 -3 3
-9 2 -12 -2z"/>
<path d="M4566 2763 c-6 -14 -5 -15 5 -6 7 7 10 15 7 18 -3 3 -9 -2 -12 -12z"/>
<path d="M4067 2763 c-4 -3 -7 -11 -7 -17 0 -6 5 -5 12 2 6 6 9 14 7 17 -3 3
-9 2 -12 -2z"/>
<path d="M3850 2736 c-6 -9 -10 -21 -7 -28 4 -9 6 -7 6 4 1 9 7 18 14 21 6 2
9 7 6 11 -3 4 -12 0 -19 -8z"/>
<path d="M3960 2723 c-23 -24 -23 -25 -4 -19 17 5 24 1 34 -23 7 -17 19 -36
28 -43 13 -11 14 -10 7 12 -7 23 -7 23 9 7 10 -9 27 -18 39 -18 17 -1 15 -3
-8 -9 -30 -8 -30 -8 8 -9 20 0 37 3 37 8 0 5 8 7 19 4 10 -3 22 0 25 6 5 7 -5
11 -28 11 -54 0 -66 8 -66 46 0 32 -2 34 -20 24 -11 -6 -20 -17 -20 -25 0 -8
-5 -15 -11 -15 -5 0 -8 4 -4 9 3 5 1 13 -5 16 -6 4 -8 15 -5 26 9 26 -5 23
-35 -8z"/>
<path d="M3121 2724 c0 -11 3 -14 6 -6 3 7 2 16 -1 19 -3 4 -6 -2 -5 -13z"/>
<path d="M3187 2703 c-3 -16 -1 -32 4 -37 5 -6 9 4 9 27 0 44 -6 48 -13 10z"/>
<path d="M3140 2690 c0 -42 15 -54 63 -51 9 0 17 6 17 12 0 6 -9 8 -20 4 -21
-7 -54 11 -46 24 3 4 1 13 -5 21 -7 12 -9 9 -9 -10z"/>
<path d="M3750 2695 c-7 -9 -8 -15 -2 -15 5 0 12 7 16 15 3 8 4 15 2 15 -2 0
-9 -7 -16 -15z"/>
<path d="M3270 2685 c-11 -13 -10 -14 4 -9 9 3 16 10 16 15 0 13 -6 11 -20 -6z"/>
<path d="M3885 2665 c-16 -14 -25 -25 -20 -25 6 1 24 12 40 25 17 14 26 25 20
25 -5 -1 -23 -12 -40 -25z"/>
<path d="M4215 2680 c-3 -5 -2 -10 4 -10 5 0 13 5 16 10 3 6 2 10 -4 10 -5 0
-13 -4 -16 -10z"/>
<path d="M4510 2684 c0 -13 -39 -36 -77 -44 -24 -6 -30 -5 -26 6 3 9 -2 14
-16 14 -24 0 -29 -28 -6 -36 25 -10 78 5 110 31 16 13 26 27 22 31 -4 4 -7 3
-7 -2z"/>
<path d="M2420 2665 c-10 -12 -10 -21 -2 -40 10 -21 17 -24 44 -20 26 4 29 3
13 -4 -18 -9 -18 -10 7 -10 15 -1 39 10 55 24 l28 25 -33 -4 c-17 -1 -35 -6
-39 -9 -3 -4 -20 -7 -36 -7 -27 0 -29 2 -23 30 6 34 4 37 -14 15z"/>
<path d="M2870 2655 c-14 -17 -56 -20 -66 -4 -4 8 -9 8 -18 -1 -8 -8 -7 -13 4
-20 8 -5 11 -12 7 -17 -4 -4 -16 -2 -25 3 -19 12 -89 -6 -76 -19 11 -11 92 -8
99 3 4 6 11 8 16 5 5 -3 19 3 31 14 12 12 25 21 29 21 4 0 9 7 13 15 3 8 4 15
2 15 -2 0 -9 -7 -16 -15z"/>
<path d="M2570 2647 c20 -20 79 -44 91 -36 11 7 9 9 -6 9 -12 0 -25 4 -30 9
-11 9 -64 27 -55 18z"/>
<path d="M3825 2630 c-3 -6 1 -7 9 -4 18 7 21 14 7 14 -6 0 -13 -4 -16 -10z"/>
<path d="M3756 2613 c-6 -14 -5 -15 5 -6 7 7 10 15 7 18 -3 3 -9 -2 -12 -12z"/>
<path d="M3724 2589 c-3 -5 -17 -10 -32 -10 -24 -2 -24 -2 -4 -6 12 -3 22 -12
22 -21 0 -29 -43 -71 -75 -74 -26 -3 -30 0 -33 24 -3 22 3 32 30 48 18 11 27
20 20 20 -19 0 -82 -50 -82 -65 0 -22 36 -45 71 -45 41 0 99 44 123 92 9 17
16 32 16 33 0 8 -51 11 -56 4z m26 -29 c0 -5 -4 -10 -10 -10 -5 0 -10 5 -10
10 0 6 5 10 10 10 6 0 10 -4 10 -10z"/>
</g>
</svg>
